$MeshFormat
2.2 0 8
$EndMeshFormat
$PhysicalNames
5
1 1 "left"
1 2 "right"
1 3 "bottom"
1 4 "top"
2 10 "domain"
$EndPhysicalNames
$Nodes
99
1 0 0 0
2 1 0 0
3 1 1 0
4 0 1 0
5 0.03124999999994044 0 0
6 0.06249999999987291 0 0
7 0.0937499999998237 0 0
8 0.1249999999997731 0 0
9 0.1562499999996846 0 0
10 0.1874999999995934 0 0
11 0.2187499999995021 0 0
12 0.2499999999994109 0 0
13 0.2812499999993197 0 0
14 0.3124999999992285 0 0
15 0.3437499999991373 0 0
16 0.3749999999990461 0 0
17 0.4062499999989549 0 0
18 0.4374999999988636 0 0
19 0.4687499999987724 0 0
20 0.4999999999986921 0 0
21 0.5312499999987637 0 0
22 0.562499999998846 0 0
23 0.5937499999989285 0 0
24 0.6249999999990109 0 0
25 0.6562499999990934 0 0
26 0.6874999999991758 0 0
27 0.7187499999992581 0 0
28 0.7499999999993406 0 0
29 0.781249999999423 0 0
30 0.8124999999995055 0 0
31 0.8437499999995879 0 0
32 0.8749999999996703 0 0
33 0.9062499999997528 0 0
34 0.9374999999998351 0 0
35 0.9687499999999176 0 0
36 1 0.4999999999986921 0
37 0.9687499999998699 1 0
38 0.9374999999997398 1 0
39 0.9062499999996096 1 0
40 0.8749999999995012 1 0
41 0.8437499999996964 1 0
42 0.8124999999999132 1 0
43 0.7812500000001301 1 0
44 0.7500000000003471 1 0
45 0.7187500000005638 1 0
46 0.6875000000007805 1 0
47 0.6562500000009973 1 0
48 0.625000000001214 1 0
49 0.5937500000014309 1 0
50 0.5625000000016476 1 0
51 0.5312500000018643 1 0
52 0.5000000000020595 1 0
53 0.468750000001951 1 0
54 0.437500000001821 1 0
55 0.4062500000016909 1 0
56 0.3750000000015609 1 0
57 0.3437500000014307 1 0
58 0.3125000000013007 1 0
59 0.2812500000011706 1 0
60 0.2500000000010405 1 0
61 0.2187500000009105 1 0
62 0.1875000000007804 1 0
63 0.1562500000006504 1 0
64 0.1250000000005203 1 0
65 0.09375000000039024 1 0
66 0.06250000000026013 1 0
67 0.03125000000013012 1 0
68 0 0.5000000000020595 0
69 0.03125000000003528 0.5000000000019543 0
70 0.06250000000006652 0.5000000000018491 0
71 0.093750000000107 0.5000000000017438 0
72 0.1250000000001467 0.5000000000016386 0
73 0.1562500000001675 0.5000000000015333 0
74 0.1875000000001869 0.5000000000014281 0
75 0.2187500000002063 0.5000000000013228 0
76 0.2500000000002257 0.5000000000012176 0
77 0.2812500000002451 0.5000000000011123 0
78 0.3125000000002647 0.5000000000010071 0
79 0.343750000000284 0.5000000000009018 0
80 0.3750000000003035 0.5000000000007966 0
81 0.4062500000003229 0.5000000000006913 0
82 0.4375000000003423 0.5000000000005863 0
83 0.4687500000003617 0.5000000000004808 0
84 0.5000000000003758 0.5000000000003758 0
85 0.531250000000314 0.5000000000002706 0
86 0.5625000000002468 0.5000000000001653 0
87 0.5937500000001796 0.5000000000000603 0
88 0.6250000000001126 0.4999999999999548 0
89 0.6562500000000455 0.4999999999998496 0
90 0.687499999999978 0.4999999999997445 0
91 0.7187499999999108 0.4999999999996393 0
92 0.7499999999998439 0.4999999999995339 0
93 0.7812499999997764 0.4999999999994288 0
94 0.8124999999997093 0.4999999999993235 0
95 0.843749999999642 0.4999999999992183 0
96 0.8749999999995858 0.499999999999113 0
97 0.9062499999996813 0.4999999999990078 0
98 0.9374999999997875 0.4999999999989025 0
99 0.9687499999998935 0.4999999999987973 0
$EndNodes
$Elements
132
1 1 2 3 1 1 5
2 1 2 3 1 5 6
3 1 2 3 1 6 7
4 1 2 3 1 7 8
5 1 2 3 1 8 9
6 1 2 3 1 9 10
7 1 2 3 1 10 11
8 1 2 3 1 11 12
9 1 2 3 1 12 13
10 1 2 3 1 13 14
11 1 2 3 1 14 15
12 1 2 3 1 15 16
13 1 2 3 1 16 17
14 1 2 3 1 17 18
15 1 2 3 1 18 19
16 1 2 3 1 19 20
17 1 2 3 1 20 21
18 1 2 3 1 21 22
19 1 2 3 1 22 23
20 1 2 3 1 23 24
21 1 2 3 1 24 25
22 1 2 3 1 25 26
23 1 2 3 1 26 27
24 1 2 3 1 27 28
25 1 2 3 1 28 29
26 1 2 3 1 29 30
27 1 2 3 1 30 31
28 1 2 3 1 31 32
29 1 2 3 1 32 33
30 1 2 3 1 33 34
31 1 2 3 1 34 35
32 1 2 3 1 35 2
33 1 2 2 2 2 36
34 1 2 2 2 36 3
35 1 2 4 3 3 37
36 1 2 4 3 37 38
37 1 2 4 3 38 39
38 1 2 4 3 39 40
39 1 2 4 3 40 41
40 1 2 4 3 41 42
41 1 2 4 3 42 43
42 1 2 4 3 43 44
43 1 2 4 3 44 45
44 1 2 4 3 45 46
45 1 2 4 3 46 47
46 1 2 4 3 47 48
47 1 2 4 3 48 49
48 1 2 4 3 49 50
49 1 2 4 3 50 51
50 1 2 4 3 51 52
51 1 2 4 3 52 53
52 1 2 4 3 53 54
53 1 2 4 3 54 55
54 1 2 4 3 55 56
55 1 2 4 3 56 57
56 1 2 4 3 57 58
57 1 2 4 3 58 59
58 1 2 4 3 59 60
59 1 2 4 3 60 61
60 1 2 4 3 61 62
61 1 2 4 3 62 63
62 1 2 4 3 63 64
63 1 2 4 3 64 65
64 1 2 4 3 65 66
65 1 2 4 3 66 67
66 1 2 4 3 67 4
67 1 2 1 4 4 68
68 1 2 1 4 68 1
69 3 2 10 1 1 5 69 68
70 3 2 10 1 68 69 67 4
71 3 2 10 1 5 6 70 69
72 3 2 10 1 69 70 66 67
73 3 2 10 1 6 7 71 70
74 3 2 10 1 70 71 65 66
75 3 2 10 1 7 8 72 71
76 3 2 10 1 71 72 64 65
77 3 2 10 1 8 9 73 72
78 3 2 10 1 72 73 63 64
79 3 2 10 1 9 10 74 73
80 3 2 10 1 73 74 62 63
81 3 2 10 1 10 11 75 74
82 3 2 10 1 74 75 61 62
83 3 2 10 1 11 12 76 75
84 3 2 10 1 75 76 60 61
85 3 2 10 1 12 13 77 76
86 3 2 10 1 76 77 59 60
87 3 2 10 1 13 14 78 77
88 3 2 10 1 77 78 58 59
89 3 2 10 1 14 15 79 78
90 3 2 10 1 78 79 57 58
91 3 2 10 1 15 16 80 79
92 3 2 10 1 79 80 56 57
93 3 2 10 1 16 17 81 80
94 3 2 10 1 80 81 55 56
95 3 2 10 1 17 18 82 81
96 3 2 10 1 81 82 54 55
97 3 2 10 1 18 19 83 82
98 3 2 10 1 82 83 53 54
99 3 2 10 1 19 20 84 83
100 3 2 10 1 83 84 52 53
101 3 2 10 1 20 21 85 84
102 3 2 10 1 84 85 51 52
103 3 2 10 1 21 22 86 85
104 3 2 10 1 85 86 50 51
105 3 2 10 1 22 23 87 86
106 3 2 10 1 86 87 49 50
107 3 2 10 1 23 24 88 87
108 3 2 10 1 87 88 48 49
109 3 2 10 1 24 25 89 88
110 3 2 10 1 88 89 47 48
111 3 2 10 1 25 26 90 89
112 3 2 10 1 89 90 46 47
113 3 2 10 1 26 27 91 90
114 3 2 10 1 90 91 45 46
115 3 2 10 1 27 28 92 91
116 3 2 10 1 91 92 44 45
117 3 2 10 1 28 29 93 92
118 3 2 10 1 92 93 43 44
119 3 2 10 1 29 30 94 93
120 3 2 10 1 93 94 42 43
121 3 2 10 1 30 31 95 94
122 3 2 10 1 94 95 41 42
123 3 2 10 1 31 32 96 95
124 3 2 10 1 95 96 40 41
125 3 2 10 1 32 33 97 96
126 3 2 10 1 96 97 39 40
127 3 2 10 1 33 34 98 97
128 3 2 10 1 97 98 38 39
129 3 2 10 1 34 35 99 98
130 3 2 10 1 98 99 37 38
131 3 2 10 1 35 2 36 99
132 3 2 10 1 99 36 3 37
$EndElements
