$MeshFormat
2.2 0 8
$EndMeshFormat
$PhysicalNames
6
1 1 "inlet"
1 2 "outlet"
1 3 "bottom"
1 4 "top"
1 5 "cylinder"
2 10 "domain"
$EndPhysicalNames
$Nodes
1222
1 1 0 0
2 -5 -2 0
3 10 -2 0
4 -5 2 0
5 10 2 0
6 0.9749279121818237 0.2225209339563139 0
7 0.9009688679024196 0.4338837391175572 0
8 0.7818314824680307 0.6234898018587325 0
9 0.6234898018587348 0.7818314824680287 0
10 0.4338837391175602 0.9009688679024181 0
11 0.2225209339563175 0.974927912181823 0
12 3.8359906236829e-15 1 0
13 -0.2225209339563098 0.9749279121818246 0
14 -0.4338837391175532 0.9009688679024215 0
15 -0.6234898018587286 0.7818314824680337 0
16 -0.7818314824680254 0.6234898018587391 0
17 -0.9009688679024156 0.4338837391175654 0
18 -0.9749279121818217 0.2225209339563227 0
19 -1 9.44833808676605e-15 0
20 -0.974927912181826 -0.2225209339563043 0
21 -0.900968867902424 -0.433883739117548 0
22 -0.7818314824680371 -0.6234898018587244 0
23 -0.6234898018587427 -0.7818314824680225 0
24 -0.4338837391175671 -0.9009688679024148 0
25 -0.2225209339563232 -0.9749279121818216 0
26 -9.065481216873355e-15 -1 0
27 0.2225209339563073 -0.9749279121818253 0
28 0.4338837391175531 -0.9009688679024215 0
29 0.6234898018587299 -0.7818314824680327 0
30 0.7818314824680275 -0.6234898018587365 0
31 0.9009688679024179 -0.4338837391175607 0
32 0.9749279121818234 -0.2225209339563155 0
33 -4.765625 -2 0
34 -4.53125 -2 0
35 -4.296875 -2 0
36 -4.0625 -2 0
37 -3.828125 -2 0
38 -3.59375 -2 0
39 -3.359375 -2 0
40 -3.125 -2 0
41 -2.890625 -2 0
42 -2.65625 -2 0
43 -2.421875 -2 0
44 -2.1875 -2 0
45 -1.953125 -2 0
46 -1.71875 -2 0
47 -1.484375 -2 0
48 -1.25 -2 0
49 -1.015625 -2 0
50 -0.78125 -2 0
51 -0.546875 -2 0
52 -0.3125 -2 0
53 -0.078125 -2 0
54 0.15625 -2 0
55 0.390625 -2 0
56 0.625 -2 0
57 0.859375 -2 0
58 1.09375 -2 0
59 1.328125 -2 0
60 1.5625 -2 0
61 1.796875 -2 0
62 2.03125 -2 0
63 2.265625 -2 0
64 2.5 -2 0
65 2.734375 -2 0
66 2.96875 -2 0
67 3.203125 -2 0
68 3.4375 -2 0
69 3.671875 -2 0
70 3.90625 -2 0
71 4.140625 -2 0
72 4.375 -2 0
73 4.609375 -2 0
74 4.84375 -2 0
75 5.078125 -2 0
76 5.3125 -2 0
77 5.546875 -2 0
78 5.78125 -2 0
79 6.015625 -2 0
80 6.25 -2 0
81 6.484375 -2 0
82 6.71875 -2 0
83 6.953125 -2 0
84 7.1875 -2 0
85 7.421875 -2 0
86 7.65625 -2 0
87 7.890625 -2 0
88 8.125 -2 0
89 8.359375 -2 0
90 8.59375 -2 0
91 8.828125 -2 0
92 9.0625 -2 0
93 9.296875 -2 0
94 9.53125 -2 0
95 9.765625 -2 0
96 -5 1.777777777777777 0
97 -5 1.555555555555555 0
98 -5 1.333333333333333 0
99 -5 1.11111111111111 0
100 -5 0.8888888888888875 0
101 -5 0.6666666666666645 0
102 -5 0.4444444444444415 0
103 -5 0.2222222222222183 0
104 -5 -4.440892098500626e-15 0
105 -5 -0.2222222222222259 0
106 -5 -0.4444444444444473 0
107 -5 -0.6666666666666683 0
108 -5 -0.8888888888888902 0
109 -5 -1.111111111111112 0
110 -5 -1.333333333333333 0
111 -5 -1.555555555555555 0
112 -5 -1.777777777777776 0
113 10 -1.777777777777777 0
114 10 -1.555555555555555 0
115 10 -1.333333333333333 0
116 10 -1.11111111111111 0
117 10 -0.8888888888888875 0
118 10 -0.6666666666666645 0
119 10 -0.4444444444444415 0
120 10 -0.2222222222222183 0
121 10 4.440892098500626e-15 0
122 10 0.2222222222222259 0
123 10 0.4444444444444473 0
124 10 0.6666666666666683 0
125 10 0.8888888888888902 0
126 10 1.111111111111112 0
127 10 1.333333333333333 0
128 10 1.555555555555555 0
129 10 1.777777777777776 0
130 9.765625 2 0
131 9.53125 2 0
132 9.296875 2 0
133 9.0625 2 0
134 8.828125 2 0
135 8.59375 2 0
136 8.359375 2 0
137 8.125 2 0
138 7.890625 2 0
139 7.65625 2 0
140 7.421875 2 0
141 7.1875 2 0
142 6.953125 2 0
143 6.71875 2 0
144 6.484375 2 0
145 6.25 2 0
146 6.015625 2 0
147 5.78125 2 0
148 5.546875 2 0
149 5.3125 2 0
150 5.078125 2 0
151 4.84375 2 0
152 4.609375 2 0
153 4.375 2 0
154 4.140625 2 0
155 3.90625 2 0
156 3.671875 2 0
157 3.4375 2 0
158 3.203125 2 0
159 2.96875 2 0
160 2.734375 2 0
161 2.5 2 0
162 2.265625 2 0
163 2.03125 2 0
164 1.796875 2 0
165 1.5625 2 0
166 1.328125 2 0
167 1.09375 2 0
168 0.859375 2 0
169 0.625 2 0
170 0.390625 2 0
171 0.15625 2 0
172 -0.078125 2 0
173 -0.3125 2 0
174 -0.546875 2 0
175 -0.78125 2 0
176 -1.015625 2 0
177 -1.25 2 0
178 -1.484375 2 0
179 -1.71875 2 0
180 -1.953125 2 0
181 -2.1875 2 0
182 -2.421875 2 0
183 -2.65625 2 0
184 -2.890625 2 0
185 -3.125 2 0
186 -3.359375 2 0
187 -3.59375 2 0
188 -3.828125 2 0
189 -4.0625 2 0
190 -4.296875 2 0
191 -4.53125 2 0
192 -4.765625 2 0
193 3.453640429284421 -1.547200613106311 0
194 5.316487595879046 -1.555319897277685 0
195 7.18883179803416 -1.555285652845368 0
196 7.657317531575392 1.555784204254596 0
197 5.783964300279678 1.555340949629447 0
198 3.915414152448443 1.551529940815553 0
199 1.337686622250304 -0.550800810995434 0
200 1.478503159685625 -0.1930952402975114 0
201 9.531918440467049 0.2224697748610399 0
202 -1.269207895479404 -0.4203717541677227 0
203 -4.541427633207205 0.22936690977678 0
204 -2.653064186739239 1.527509336103969 0
205 -3.118683474496172 -1.533444511843187 0
206 8.594419220727133 -1.555318177413344 0
207 -4.536833594552141 -0.6573266867245647 0
208 2.513728602932892 1.534693325440186 0
209 -4.071371367718686 1.554289796038725 0
210 8.594413512072862 1.555762251074984 0
211 -1.678289362521725 -1.579459124610785 0
212 -1.697057580049585 1.571640718875738 0
213 1.241081458846889 0.5592826239252371 0
214 1.569978195349861 -1.492336706709922 0
215 9.531689353281639 -1.11093903960156 0
216 -1.204817849727805 0.7977076497637777 0
217 -4.0641838262676 -1.546675569574849 0
218 1.010728882768642 1.518598802134549 0
219 -1.243472164502695 1.592347031441236 0
220 -0.8166008968209981 -1.602916525304256 0
221 1.046909740916947 -1.423634361385736 0
222 -0.7858651262445786 1.244486932332925 0
223 -0.3838666335514671 -1.463911011637916 0
224 -0.3708639897182593 1.45836782613858 0
225 -4.534277721221775 -1.103677226208793 0
226 -4.535457997460904 1.55561025918877 0
227 -4.539130141017971 1.112413387905306 0
228 9.062954114937465 1.555709301090296 0
229 9.531836875931166 0.6668797783899649 0
230 9.531685509316292 1.111266794243454 0
231 2.519025973213572 -1.520329614406182 0
232 -2.143832750837155 -1.543931670900742 0
233 -3.60718832941879 1.549191978802082 0
234 1.563953295174256 1.517100133324237 0
235 4.383030503940979 -1.554184652705545 0
236 6.252150720062488 -1.55536772775344 0
237 8.125872452343121 -1.555279761663089 0
238 6.720366394417732 1.555664527783788 0
239 4.848757231387459 1.55447519052285 0
240 2.982465615024668 1.542288847898841 0
241 9.531840413475702 -0.6664390592835319 0
242 9.531484176497306 -1.555462900636653 0
243 -4.532461399192878 -1.55148142415743 0
244 9.531481762898341 1.555637566042092 0
245 0.7977872364119591 -1.070099210561562 0
246 0.2677000826550677 1.507073185621091 0
247 -1.20692686450155 -0.8231711715638018 0
248 -1.258860608245068 0.4085524202963736 0
249 -0.7863388264914599 -1.253823177337046 0
250 -0.8160728494600407 1.596642227045861 0
251 0.5856104617005256 -1.534443614325782 0
252 2.530759937246388 1.069439603478773 0
253 8.595004098933369 -1.110671962690276 0
254 9.063807614532692 0.2226863592379057 0
255 8.59499299838224 1.111502195208336 0
256 -1.62300626396594 -1.188434135186488 0
257 -1.620814494939736 0.7651526646560796 0
258 9.063654678136519 -0.6662391510756913 0
259 9.063647955302905 0.667065737594292 0
260 9.063359143492395 -1.110787695025379 0
261 -4.079785677243367 1.111983067829385 0
262 -1.23583659056531 -1.601834455699275 0
263 -3.593842405779661 -1.540567764477593 0
264 -2.166051837842095 1.545002584590752 0
265 -2.63395117193965 -1.529282453543453 0
266 -3.137923683849051 1.537022434906294 0
267 2.042375337043116 1.526622551354825 0
268 2.041204481910394 -1.506389125122614 0
269 8.125862873515523 1.555788845034999 0
270 2.989177447923398 -1.536897635570814 0
271 3.449244287435293 1.548012568671724 0
272 7.657332575864677 -1.55526976744988 0
273 3.917748763038715 -1.552100277827857 0
274 4.849377704140984 -1.555022957741315 0
275 5.784133524633044 -1.5553877979533 0
276 6.720415115694453 -1.555323095263175 0
277 7.188805035165156 1.555744425738899 0
278 6.252061759008859 1.555537313864742 0
279 5.316163396833973 1.555024512460823 0
280 4.381834998879869 1.553457727305463 0
281 -4.539575206773849 -0.2129886648457549 0
282 -4.541359068421135 0.6706674264148095 0
283 9.531919156269943 -0.22196932524361 0
284 9.062957881468041 -1.555381339094166 0
285 0.6466793409196565 1.277929693927464 0
286 9.063351835242521 1.111402376870219 0
287 -4.073318984483298 -0.645808662171147 0
288 -4.067614242474368 -1.094710276219909 0
289 -1.218352205778183 1.193244333062374 0
290 -1.208873049071477 -1.214708205945372 0
291 1.158326749756124 -0.9169764059130521 0
292 1.139057730050395 0.9736803899078936 0
293 -1.628144677796494 -0.8453184726221391 0
294 0.1557179934830577 -1.513670148925534 0
295 -1.303265667225721 -0.0009778298185877839 0
296 0.5564825470373669 -1.214156883050194 0
297 -1.663210328994637 1.151330018767223 0
298 3.461500170946543 1.098287408854783 0
299 7.658278979666254 -1.110585980990524 0
300 5.786637906317379 -1.110864187185445 0
301 4.8542055054193 -1.110424787370094 0
302 3.014617137204495 -1.081238230487632 0
303 7.189952443971043 1.111477182292477 0
304 5.786380362430019 1.110773988441272 0
305 4.388125385577333 1.10770363254897 0
306 -3.169498402356053 1.083133227208176 0
307 -2.121593646908008 1.08926731762558 0
308 -2.627250485633577 -1.04476434408208 0
309 8.126617984272919 1.111553910314837 0
310 8.595433117044042 -0.6660887188499628 0
311 2.056487263825182 1.054170503508574 0
312 1.686737548742852 -0.7064783040149463 0
313 -2.048472042541703 -1.02374013448148 0
314 -3.623476120029394 1.106101385997038 0
315 1.592418083736805 1.039870027326359 0
316 8.126633800777485 -1.110602961584107 0
317 2.998510096827675 1.086781787692443 0
318 3.927657470369616 -1.106439693357599 0
319 -3.598191585951025 -1.082606271062621 0
320 6.253888763156561 1.111111785342922 0
321 7.18999490549049 -1.11062059187312 0
322 6.72186803032138 -1.110698206650896 0
323 4.853281755198644 1.109348418118483 0
324 -4.080014156683136 -0.2015456986610702 0
325 -1.643954791613678 0.4239222836200415 0
326 9.063809625145387 -0.2217472020348708 0
327 -4.08516225122942 0.6741239819535646 0
328 8.595657064736468 0.2228474364737877 0
329 8.595425549760748 0.6672037359792902 0
330 2.024891989321115 -0.9682250877947246 0
331 1.595744309882603 -1.04290932057955 0
332 -1.693334375733536 -0.4389720916559121 0
333 3.019283351604888 0.6380832079420651 0
334 7.658974600234477 -0.6659820594255952 0
335 4.393133523257685 0.663238534806007 0
336 5.788221123888984 0.6663483046780841 0
337 -2.660947792390032 -0.5611262395637767 0
338 2.197924189546424 -0.536552587155403 0
339 8.127191731032624 -0.6660010409583936 0
340 -2.65583550101292 0.9832748315311144 0
341 -3.635542214301188 0.675821428741871 0
342 7.658253586900615 1.111547653981618 0
343 3.469031194064338 -1.099536810318011 0
344 2.552413185036342 -1.042559318737817 0
345 -3.121769459310975 -1.065918929509712 0
346 2.049224624754993 0.5375191431219529 0
347 7.190848311346077 -0.6660373541547538 0
348 4.389874428714538 -1.109280740397375 0
349 6.254024540863908 -1.1107957295707 0
350 6.721793428114041 1.111335548224279 0
351 3.92420755131493 1.10452514821836 0
352 5.319443450235307 1.110244832411402 0
353 5.319932799489004 -1.110808734188862 0
354 -3.608438703821899 -0.629358735550354 0
355 8.127181537408307 0.6672772035115017 0
356 -4.084967909405863 0.23772941495116 0
357 8.595658711252614 -0.2215816362302561 0
358 1.850407393324812 -0.373617832134149 0
359 -2.165859345966063 -0.4941751610897708 0
360 -2.034578904527495 0.6028114334421634 0
361 -1.707697594916157 0.01106440618408989 0
362 1.617516166203299 0.6190981322620721 0
363 3.042793167555482 -0.6539271518791128 0
364 7.658950371388737 0.6672724082650334 0
365 6.722862811673415 0.6670097187759126 0
366 4.394519440632392 -0.6655935216459834 0
367 6.255387970381194 -0.6663173543525376 0
368 -2.453522662026058 0.6340121168820981 0
369 3.473395721774706 0.6538064364739726 0
370 5.32196875976652 0.6657706346915715 0
371 8.127485409341393 -0.2214876845096283 0
372 -3.622027115751739 -0.1846051280949413 0
373 7.659337474066461 -0.2214743347988404 0
374 -2.718736982856465 -0.1131307642260552 0
375 2.353766744898602 -0.2423170169091517 0
376 -3.205132456648592 0.6729122892558044 0
377 -3.139667757282598 -0.6038922582054452 0
378 3.931555090707998 0.6601834952848268 0
379 5.322390276652298 -0.6665405580545088 0
380 3.477825155541494 -0.6602350127448262 0
381 6.722929995256202 -0.6661573515053532 0
382 2.560208109753062 0.6073322714244945 0
383 6.255268414184045 0.6667394698308909 0
384 4.856811591122586 0.6648502246980124 0
385 8.127483597996381 0.2229363187357268 0
386 -3.633700606196497 0.2495969384518013 0
387 2.611552866400765 -0.5500250087686112 0
388 -2.25118627391366 0.05505557670302446 0
389 1.678983282106956 0.218724457503719 0
390 3.042828039583794 0.2133400612621659 0
391 3.479409112884003 0.2163159494618004 0
392 7.191289352834544 -0.2215501944205971 0
393 3.935672090228601 0.2184279631769897 0
394 6.723475330505302 -0.2217070528090617 0
395 4.85887614306667 0.2209369683455534 0
396 5.789259054842445 0.2220493151567039 0
397 7.19080690276368 0.6671843165403689 0
398 -3.191661694841224 0.2723578041191659 0
399 4.857587710755706 -0.6663535489489457 0
400 3.933928215910096 -0.6637151579621391 0
401 5.788445702782699 -0.6664729179234434 0
402 -3.165538351181523 -0.156811623374666 0
403 2.222302601703608 0.1969145664122582 0
404 7.659327653640409 0.2229388386374924 0
405 -2.709707572333656 0.3393597603429219 0
406 2.974258528124215 -0.2207156463951399 0
407 6.723447309936214 0.2226706923528478 0
408 -2.882952118398309 0.6640428132541474 0
409 1.317361339150791 0.2695633830061414 0
410 5.323419922504794 0.2215804329172152 0
411 6.256033422049293 0.2224062313604345 0
412 4.396076097166328 0.2199713507288523 0
413 6.256081320494215 -0.2219283483811848 0
414 2.600286180022013 0.1176954729145075 0
415 3.477187750086149 -0.2217458984777313 0
416 7.191270621834796 0.2228486266623433 0
417 4.396562037757385 -0.2227289556111668 0
418 5.789347279867934 -0.2221931175526554 0
419 4.859170659042436 -0.22267317677959 0
420 2.042428046042274 -0.04561033080896566 0
421 3.936206766889839 -0.2224789986269906 0
422 5.323583585895685 -0.2224618468140942 0
423 -0.5918272260910968 1.309045835435592 0
424 -0.8171664245726156 1.420482452303168 0
425 -0.6159247734239406 1.565929337043399 0
426 -0.6691750651962409 1.432254865586243 0
427 -0.6207325897979517 -1.571242074036692 0
428 -0.817494389505343 -1.429016376792958 0
429 -0.5966985266769194 -1.315675970684139 0
430 -0.6729515977137313 -1.439160054153116 0
431 0.4694103421003257 1.721983344036377 0
432 0.1782899498415831 1.782394786892516 0
433 0.3472881388003604 1.835089900273148 0
434 1.151806436658269 -0.4873539268563661 0
435 1.272105604663153 -0.718847112372765 0
436 1.024806043897643 -0.7000697485953967 0
437 1.143804831840609 -0.6349157660719508 0
438 0.8910879736294903 -1.224056418147797 0
439 0.9504343879502972 -0.9886139012291724 0
440 1.13977422632291 -1.172526283892984 0
441 0.9961641796643987 -1.131237570305556 0
442 -1.610262878320018 -1.017644585765169 0
443 -1.815802497120964 -1.144957528864143 0
444 -1.819962975559055 -0.8928309483534893 0
445 -1.754613901781163 -1.018690731302735 0
446 -1.61772847548658 0.5961195381415719 0
447 -1.82666276897074 0.4718569698179739 0
448 -1.809132927617448 0.7191796322572243 0
449 -1.75625951711105 0.5962230528258967 0
450 2.842497163820137 -0.6289380937504194 0
451 2.77735955452507 -0.3722930451053216 0
452 3.034625446849285 -0.4566814009180953 0
453 2.881943144049445 -0.4822883713534563 0
454 1.07997289731772 1.789941566713564 0
455 0.7965091369360464 1.725189386172421 0
456 0.9112394239992259 1.838758366374263 0
457 2.264209896293162 -0.3814458201238468 0
458 2.485919172177172 -0.3607444006754341 0
459 2.378093920149698 -0.57375759967369 0
460 2.379931142450571 -0.4400966133717287 0
461 -2.506386617582535 -0.06450848667236081 0
462 -2.732263825858766 0.09203360438409418 0
463 -2.475335671350175 0.2238398833692933 0
464 -2.567510977632256 0.08711146547522514 0
465 3.033726575528191 0.01578461751333406 0
466 2.773293608512243 -0.06844851729984198 0
467 2.840121693512542 0.1913848123434219 0
468 2.879055455537106 0.04308530455652546 0
469 1.809492848420562 0.6093930371151045 0
470 1.876038516434114 0.3593098659052938 0
471 1.634255953898289 0.4378629885540434 0
472 1.776090302897966 0.4653737426323732 0
473 1.844501553443617 -0.8008419241947976 0
474 1.788511762010716 -1.043988317351793 0
475 1.626997586099369 -0.8654631985958777 0
476 1.758564810013298 -0.9042560613578356 0
477 3.445559649903795 -1.773284660710694 0
478 2.978621201608743 -1.768080582622674 0
479 3.221681734194423 -1.542871383505321 0
480 3.212256164444121 -1.771054435002706 0
481 4.385088995140289 1.330437960918999 0
482 4.615231608404349 1.554044917937953 0
483 4.851111692789586 1.331840611135115 0
484 4.620562536132583 1.10865306555033 0
485 4.617999024682772 1.331247116423951 0
486 1.560552152363915 1.759843708294118 0
487 1.312326367079666 1.512786517020842 0
488 1.316065013126014 1.763397093699707 0
489 8.594086131739132 1.777882016791057 0
490 9.062729995627482 1.777855338488608 0
491 8.828682867894091 1.555737334931218 0
492 8.828406849219149 1.777869102125935 0
493 -1.248232531071859 1.795076555629475 0
494 -0.7987555700833671 1.791322486807576 0
495 -1.024611703672798 1.5985423405784 0
496 -1.022100162066587 1.796564935105588 0
497 5.086923371609533 -1.110675101367443 0
498 5.318308154771282 -1.333033887272689 0
499 5.082852327204042 -1.55521207482734 0
500 4.851934966986741 -1.332655676119147 0
501 5.085005134118544 -1.332897090550369 0
502 5.553182708329421 -1.110860505677985 0
503 5.785454304394647 -1.333111102831117 0
504 5.550254197816601 -1.555370606974237 0
505 5.551799983562177 -1.333094814660251 0
506 5.785227575685936 1.333040905884706 0
507 6.01798147376788 1.555449334454414 0
508 6.253017465265032 1.333317097446455 0
509 6.020073761329613 1.110959038125402 0
510 6.019075466199814 1.3331924631994 0
511 1.075675798518313 -1.732147327378633 0
512 0.6063272495496781 -1.760380376447285 0
513 0.7952719618909156 -1.50682251062407 0
514 0.8353763376442671 -1.746399104359909 0
515 -1.708850321353601 1.785415286756186 0
516 -1.468338515969845 1.58302724146535 0
517 -1.477403524421628 1.79091023111488 0
518 1.56413085862448 -1.743764340220529 0
519 1.328996479876245 -1.470631838374412 0
520 1.322242192599636 -1.734090946089253 0
521 2.508989118581373 -1.76031557462048 0
522 2.755281194094037 -1.529197620368125 0
523 2.744290169403733 -1.764374638634134 0
524 -1.699925842485603 -1.788809650086164 0
525 -2.167247722099984 -1.773330693334974 0
526 -1.906885474236551 -1.561513074795752 0
527 -1.931890503515972 -1.780886480738655 0
528 3.685569324598998 -1.550139552798733 0
529 3.912080835665293 -1.775888560018458 0
530 3.67877919258051 -1.774833059879097 0
531 4.150232536167618 -1.553362056991734 0
532 4.379087121036164 -1.777023180844667 0
533 4.145509451541006 -1.776573611534924 0
534 4.84661454905204 -1.777482792012004 0
535 5.314528260661298 -1.777647083351821 0
536 5.080530262381211 -1.777586723738332 0
537 4.61608765032692 -1.554696368396963 0
538 4.612792126244948 -1.777303563374773 0
539 5.782715905996844 -1.777687820159507 0
540 5.548593441532794 -1.777676748452557 0
541 6.018103450314827 -1.555384493642992 0
542 6.251092623257037 -1.777680397322955 0
543 6.016884446275027 -1.777687967571024 0
544 -4.066925584617062 1.776909849615016 0
545 -3.600160549598469 1.774162249551073 0
546 -3.839429863681532 1.552428962462907 0
547 -3.833673360743662 1.77587323240084 0
548 6.719595503181279 -1.77765874202421 0
549 6.954607288462936 -1.555304051460707 0
550 7.188175128088225 -1.777640932221749 0
551 6.953876489310661 -1.777650233870352 0
552 6.486257008915377 -1.555347636076879 0
553 6.485330498767365 -1.777671174052527 0
554 8.594089019467184 -1.777657418321116 0
555 8.125442319911315 -1.777637759748805 0
556 8.36014326154713 -1.555297536190376 0
557 8.359763437628146 -1.777647480169839 0
558 7.189440612360628 -1.332947308523929 0
559 6.721177292851193 -1.333004443871801 0
560 6.955900325289116 -1.110659034953171 0
561 6.955283652219417 -1.332976656209732 0
562 3.923020612923104 -1.328875334377685 0
563 4.158426577556612 -1.108154972372358 0
564 4.386665098886098 -1.331569016576182 0
565 4.154590866383516 -1.330504677744995 0
566 7.188161665930495 1.777872342864626 0
567 6.954571088817578 1.55570855873657 0
568 6.719569146599772 1.777831004601356 0
569 6.953857474092723 1.777853464890517 0
570 7.423052456693588 1.555767553016803 0
571 7.656790353452646 1.777892369417853 0
572 7.422470834890389 1.777883627981477 0
573 2.975472115836541 1.771028027651866 0
574 2.748420572703846 1.538639762524523 0
575 2.50667408962997 1.767313845642677 0
576 2.741230278844961 1.76924509947376 0
577 6.251045309675991 1.777765567932903 0
578 5.782625833811154 1.777663766824734 0
579 6.016819553886256 1.777719992674797 0
580 6.486191357124888 1.555606418817832 0
581 6.485295732647943 1.777801197655792 0
582 5.550020770129773 1.555202161876116 0
583 5.314355880317168 1.777498585791599 0
584 5.548469305046194 1.777591481972129 0
585 5.082405278915066 1.554788944878029 0
586 4.846283421241705 1.777209654952611 0
587 5.080292267148305 1.777374919935972 0
588 4.378448532606557 1.776675277660901 0
589 4.148567607898958 1.552642374596066 0
590 3.91084679818709 1.775670402493449 0
591 4.144622842137594 1.776248450073137 0
592 4.61233481880658 1.776983564832523 0
593 8.360136085706657 1.555777810477285 0
594 8.125436426540592 1.7778949140127 0
595 8.359759455114308 1.77788922847686 0
596 7.891584886696189 1.55578895307965 0
597 7.891110342809331 1.777894698235819 0
598 4.621825447378463 -1.109980622782474 0
599 4.619130427396787 -1.33223281534051 0
600 9.765919269355038 0.6667744809994015 0
601 9.531766593317659 0.8890745349329212 0
602 9.765842611454238 1.111189506533077 0
603 9.765883024851664 0.8889823171000987 0
604 -4.768430959838806 -0.6621255257626786 0
605 -4.535480185324632 -0.880275214064112 0
606 -4.767187504842744 -1.107487415335681 0
607 -4.767776606652178 -0.8846956367588895 0
608 9.765960010807536 0.2223473292998659 0
609 9.531884053269325 0.4446763772228203 0
610 9.765941897000683 0.4445612228636339 0
611 -4.537412179178429 1.333816023145492 0
612 -4.769472210302237 1.111852728338648 0
613 -4.767694213865877 1.555657220149508 0
614 -4.768644567303801 1.3336672230058 0
615 9.531770911922592 -0.8886867787189555 0
616 9.765920224269768 -0.6665521262979177 0
617 9.765844511235269 -1.111024643030051 0
618 9.765884860649592 -0.8887875454853228 0
619 4.856102993057229 -0.8883199049095444 0
620 5.089803459092305 -0.6664909261379423 0
621 5.32130475429229 -0.888642104303957 0
622 5.088534390946201 -0.8885353388606391 0
623 5.552828426486542 1.110540215350859 0
624 5.317875653412757 1.332599488775592 0
625 5.551487868630128 1.332846604570646 0
626 7.189403523545614 1.333610618291027 0
627 6.95584496312403 1.111413230306211 0
628 6.721111026801553 1.333496603102431 0
629 6.95523497246743 1.333558795336879 0
630 5.78738789172651 0.8885413876713087 0
631 6.254644484153413 0.8889173536465906 0
632 6.021660404482324 0.6665595740048741 0
633 6.02094230432807 0.8887457285258831 0
634 5.08625242758381 1.109858346945052 0
635 5.084410882320709 1.332273429289381 0
636 6.487797734974405 1.111232530508076 0
637 6.487030938922057 1.33341448470722 0
638 4.624756869148836 0.6641628485679854 0
639 4.390841384028418 0.8852954052547199 0
640 4.855202632814428 0.887013928654518 0
641 4.622840732555781 0.8862853405162167 0
642 5.554978005080551 0.6660884603173516 0
643 5.320822673906042 0.8879662127550689 0
644 5.554003959135667 0.8882853317830189 0
645 5.787643822557115 -0.8886524726332596 0
646 5.555285065810734 -0.6665253229176102 0
647 5.5543543364463 -0.888670883381251 0
648 5.09096002149258 0.2212871237972732 0
649 4.85804967880129 0.4428329164643096 0
650 5.089231744459482 0.6653671171434982 0
651 5.322844755672733 0.4436454240561797 0
652 5.090271313153485 0.4432843883596289 0
653 5.087876872795826 0.8875534733666618 0
654 6.722377514405032 0.8891698576223516 0
655 6.489006677650702 0.6668842887273558 0
656 6.488458785034938 0.8890529746014094 0
657 7.657804847694081 1.333667155405151 0
658 7.424084886797575 1.111517358219067 0
659 7.423589391469535 1.333642425154836 0
660 5.788851009946331 0.4441846031542785 0
661 5.5562010804104 0.2218300474270511 0
662 5.555718563304783 0.4439383063017793 0
663 7.190417037350253 0.8893310075570515 0
664 6.956795322048579 0.6671039746170292 0
665 6.956362285978259 0.8892570001560498 0
666 6.020259983121976 -1.110839427003879 0
667 6.253136265368153 -1.33307350247698 0
668 6.019239096110292 -1.333101440787315 0
669 6.487897962068013 -1.110750040281532 0
670 6.487118621689323 -1.333042279698375 0
671 4.627222090626779 0.220507946011707 0
672 4.394896823773151 0.4414848666204689 0
673 4.626231473984285 0.4422492708772329 0
674 5.789016978419889 -0.4443236631393162 0
675 6.022612259845896 -0.2220593390560866 0
676 6.255822630341624 -0.4441159166434976 0
677 6.021823123748592 -0.6664022479688229 0
678 6.022319730875054 -0.4442238703872775 0
679 -4.540487907649532 0.8913965648096892 0
680 -4.770541891775194 0.6686943161997799 0
681 -4.770123421630021 0.8902101043111444 0
682 3.91990055641787 1.327752011318737 0
683 4.155999125037484 1.106373279658222 0
684 4.152391438603552 1.329306334340954 0
685 6.722452447784518 -0.8884205980680318 0
686 6.956848849824977 -0.6660946479060299 0
687 7.190460970263175 -0.88832287887552 0
688 6.956419237253801 -0.888371143599151 0
689 6.254778815092091 -0.8885477239141656 0
690 6.021127402015268 -0.8886092533547005 0
691 4.392506419379861 -0.8872866560712772 0
692 4.625793176500008 -0.6660654737439078 0
693 4.624059295465404 -0.8879205902598002 0
694 6.489094349668696 -0.6662394642673024 0
695 6.488558293751594 -0.888486902145494 0
696 3.931337123539503 -0.8847574652277879 0
697 4.163835271056797 -0.6648235462376023 0
698 4.161525819968356 -0.8862682939424171 0
699 3.461602911988968 -1.322377079975386 0
700 3.697746477456715 -1.103743180435798 0
701 3.692005463988889 -1.326310169374577 0
702 6.48970864122175 -0.221814237681266 0
703 6.723265790983416 -0.4439274258657978 0
704 6.489475612546645 -0.4440213975990015 0
705 4.165512031730525 0.2192883551719096 0
706 3.934102619096855 0.4390682515274846 0
707 4.1620196445089 0.6619598082889485 0
708 4.164129196866774 0.4404551149927651 0
709 3.928168633573708 0.881972263540064 0
710 4.159258232240973 0.8839094036565766 0
711 7.423071367127175 -1.555277420579572 0
712 7.656798334669728 -1.777633120915412 0
713 7.422481096501918 -1.777636956484108 0
714 -4.541675479616933 0.4500587564928697 0
715 -4.770592750606991 0.2257271987947142 0
716 -4.770699891142242 0.4472307810277831 0
717 3.68233442141871 1.550013440885591 0
718 3.443330068033188 1.773872861389332 0
719 3.677097789594283 1.774889861593465 0
720 4.395855228142814 -0.444089431076823 0
721 4.627604887223951 -0.2227248416670438 0
722 4.858608862516328 -0.4444763306446446 0
723 4.626969316739313 -0.4443437919059853 0
724 1.804785818814015 -1.502056140364138 0
725 2.036640283254789 -1.753287197405566 0
726 1.80080908174878 -1.749749529034564 0
727 7.19111833056738 -0.4437866661218497 0
728 6.957334968045267 -0.2216254440064314 0
729 6.957146348978747 -0.443854876330185 0
730 3.705016354285652 -0.6621491597053389 0
731 3.474892229859051 -0.8789963705660843 0
732 3.702213776616776 -0.8824510043930598 0
733 -4.540687343515657 0.008401512826265386 0
734 -4.769733008926921 -0.2177315322197363 0
735 -4.770252363827908 0.004097182668355286 0
736 -1.929356656894941 1.558685895010252 0
737 -2.177926277578813 1.773011548462547 0
738 -1.942322272396752 1.779231463357325 0
739 2.765630272822923 1.078690000579984 0
740 3.008213178452711 0.8610989493920854 0
741 2.791185019231021 0.6242324639206478 0
742 2.542984545843613 0.8371284438840194 0
743 2.777043806789557 0.8503310717513861 0
744 3.001042856649604 -1.307415269752064 0
745 3.24157391760075 -1.09259024372101 0
746 3.231528666568198 -1.316298379263429 0
747 2.532383560578221 -1.280340770666301 0
748 2.78586886776981 -1.064315954454348 0
749 2.768696527884883 -1.295313165992586 0
750 9.531886559056769 -0.4442019652977262 0
751 9.765959635379296 -0.2220948838539005 0
752 9.765942779309322 -0.4443226780608006 0
753 -4.063216367906293 -1.77325927804067 0
754 -3.829395367332395 -1.543801263357445 0
755 -3.593499783576954 -1.770222876956915 0
756 -3.828563696839622 -1.771818249527959 0
757 -3.121257963462181 -1.766904866848571 0
758 -2.877827870319801 -1.530414745059894 0
759 -2.644714880252744 -1.765779953756457 0
760 -2.883561446142105 -1.765742553512634 0
761 7.891596718054268 -1.555273590206227 0
762 7.891116735378132 -1.777635291399676 0
763 -2.654516348150477 1.765506832314581 0
764 -2.897596334352696 1.529928172190007 0
765 -3.130473755618266 1.768619937793347 0
766 -2.893222153862766 1.766050885837519 0
767 3.216018625755198 1.545438696790792 0
768 3.209485266689038 1.772583150275006 0
769 2.278414841794806 1.5306833823364 0
770 2.036336998879143 1.763248365808487 0
771 2.271779275000612 1.765313973122183 0
772 7.65865914291026 -0.8882761249896297 0
773 7.424115645489535 -1.110603115570987 0
774 7.424883788870684 -0.6660081726135398 0
775 7.424534814399562 -0.8882988147435774 0
776 4.85925168690885 -0.000881369112084868 0
777 4.396623730182001 -0.001400146018015449 0
778 4.627678468409743 -0.001125932039032523 0
779 2.280290225566566 -1.51196786964735 0
780 2.272876372929007 -1.756494102201323 0
781 7.425285998986404 -0.2215068235061822 0
782 7.659191205168783 -0.4437227626547411 0
783 7.425125582847229 -0.443751899603559 0
784 2.990049956671077 1.314062041265847 0
785 2.521588238880615 1.302122032224619 0
786 2.756388390709744 1.308352980468519 0
787 3.692738412782818 1.101914866846158 0
788 3.455308551233736 1.322695774110373 0
789 3.687576208276711 1.325597602969411 0
790 8.360815304428872 -1.110633867454907 0
791 8.594721868579391 -1.332992032749976 0
792 8.126266950507549 -1.332937934690743 0
793 8.36049019502142 -1.332963116975047 0
794 3.467677814704768 0.8751684699777442 0
795 3.701923071407788 0.6576183642386634 0
796 3.697639158868859 0.8791863854883337 0
797 -4.538239802426173 -0.4348873928800222 0
798 -4.769101930150965 -0.4397993582343348 0
799 7.657824254750355 -1.3329242869104 0
800 7.423616367546694 -1.332935381378054 0
801 3.936298742060909 -0.002022658433863435 0
802 3.70679728657693 -0.2221767097484587 0
803 3.478365639973376 -0.002097561293793668 0
804 3.706760774704698 0.2173862408594351 0
805 3.707083263200224 -0.002276740614180665 0
806 -2.407817339465685 1.533191076630624 0
807 -2.415595155798754 1.767989114323357 0
808 -1.455312108124231 -1.593038146083391 0
809 -1.244222733579068 -1.799546851370652 0
810 -1.470872894032771 -1.795334486112358 0
811 9.531925578864383 0.0002521331115039794 0
812 9.765962515480922 0.0001268148551163192 0
813 3.230257784163214 1.093305464513137 0
814 3.22290950469773 1.318869111658714 0
815 -3.357119987620445 -1.537033392053507 0
816 -3.357816260110437 -1.768527961296687 0
817 -4.083069591519827 0.8925974424134161 0
818 -3.85117618335231 1.110130319771831 0
819 -3.630875719674679 0.889553847915371 0
820 -3.859115067122691 0.6753189388339923 0
821 -3.85603393516809 0.8919359121884018 0
822 2.309574889189573 -1.01454459707548 0
823 2.041923104827644 -1.25580002577268 0
824 2.288808687940375 -1.263581107762407 0
825 7.892443320895078 -1.110593641037349 0
826 7.892036675956955 -1.332929620475159 0
827 -2.387920967905472 -1.532800418725032 0
828 -2.405418892328235 -1.768083162598093 0
829 3.24609470968055 0.6477603275773239 0
830 3.238090025852705 0.8693092638352938 0
831 -3.361290987928103 -1.07489772574474 0
832 -3.11849473244903 -1.29959863986636 0
833 -3.595284800134134 -1.311242644122217 0
834 -3.358075238125606 -1.305673677859067 0
835 -3.37386439140655 1.544087840414119 0
836 -3.365967069465982 1.771661843818437 0
837 1.805028920244994 1.522200782924954 0
838 1.799794932624476 1.761186383244014 0
839 1.575632121954287 1.274865611178173 0
840 1.365134143066823 1.016887385898527 0
841 1.086618492085928 1.215958399001591 0
842 1.332106293628023 1.257504882033574 0
843 9.29786275992036 0.222580858008355 0
844 9.063740999666596 0.4448791907519941 0
845 9.297740769088442 0.6669745368656101 0
846 9.297810576515692 0.4447795834691318 0
847 3.254870375612165 -0.6582416416529105 0
848 3.029742425228759 -0.8613948429214562 0
849 3.250542011176965 -0.8731331574170651 0
850 3.477688387369537 -0.4414691931464649 0
851 3.935452144793909 -0.4430026683059075 0
852 3.706264943035393 -0.4421579367450543 0
853 2.323911584457645 0.584461493121324 0
854 2.05985479219646 0.8141183114512278 0
855 2.293790998102059 1.060527003183612 0
856 2.30310925824814 0.8217389215173304 0
857 0.7097072938183639 -0.9190990229951712 0
858 0.6581859573285949 -1.154866235046055 0
859 0.4404248276977043 -1.143939152308966 0
860 0.5570524086162587 -1.023230787179354 0
861 -1.02135418920209 -1.606392720544945 0
862 -0.7993011797840932 -1.794591138072506 0
863 -1.020385186602382 -1.800479155733244 0
864 0.1506335956618252 -1.755908202501234 0
865 0.3768732429559667 -1.531950361961185 0
866 0.3809565274733098 -1.762048959007448 0
867 0.2271490817727955 1.202761102960869 0
868 0.5107988918851596 1.362688256894512 0
869 0.6486420920657943 1.102115680261105 0
870 0.4501084794538488 1.139898221538025 0
871 -2.652567864614458 1.279118497531754 0
872 -2.936308478055237 1.053045204780146 0
873 -3.150204177912129 1.306772333912719 0
874 -2.907474089896495 1.289050220590676 0
875 -2.878032909777584 -1.055739656937712 0
876 -2.626508543191406 -1.288768785282567 0
877 -2.875282089467725 -1.29353459062562 0
878 8.12625516910359 1.333673152369311 0
879 7.892425262779237 1.111554890874503 0
880 7.892020868967085 1.333672876969148 0
881 8.59471391468095 1.333633935901681 0
882 8.360800201182952 1.111531514122735 0
883 8.36047954452043 1.33365579571012 0
884 -4.30963342646874 -0.2077070281223352 0
885 -4.076686749261188 -0.4230303690329937 0
886 -4.305155723227566 -0.6519887475804443 0
887 -4.307432820512435 -0.4294099208286031 0
888 3.477740287914575 0.4343941261066597 0
889 3.705092900103625 0.4371441467206799 0
890 9.765742358420365 -1.555508788461415 0
891 9.53159026786091 -1.333199668753387 0
892 9.765794931596737 -1.333266215847397 0
893 -4.533268856917736 -1.327442040120034 0
894 -4.766269955766647 -1.553564451676358 0
895 -4.766683420101071 -1.330457432130487 0
896 9.531587176092978 1.333452934195325 0
897 9.765740691969166 1.555596807159159 0
898 9.765793278226477 1.333393474018725 0
899 9.531367091026173 1.777819022812384 0
900 9.297217423616654 1.555674267627272 0
901 9.297047993467931 1.777837462383635 0
902 9.765683433097262 1.777798518685276 0
903 9.531368340266933 -1.777730963671045 0
904 9.765684129321297 -1.77775425657773 0
905 -4.531811153479691 -1.775696589082866 0
906 -4.765927271044046 -1.776759846964134 0
907 -4.298473985342945 -1.549211300908649 0
908 -4.297596558282081 -1.774541679080659 0
909 2.049570322837609 1.290398145197097 0
910 1.822367844956016 1.049462394705908 0
911 1.813339362189077 1.284287414615633 0
912 -4.312777693724248 0.2332992371726032 0
913 -4.082912378725965 0.01865464912159936 0
914 -4.31150057488961 0.01315395121772236 0
915 9.063822708521638 0.0004734139925580869 0
916 9.2978626018249 -0.221856427629925 0
917 9.297872076877127 0.0003645419006963175 0
918 3.031827286379136 0.4202374760703298 0
919 3.255997090278723 0.2156593468473357 0
920 3.253179786243022 0.4298100953108036 0
921 9.297524050007592 -1.110861738604535 0
922 9.297220894496952 -1.55542128815272 0
923 9.063165321810747 -1.333082189112969 0
924 9.297376995168237 -1.33314007628613 0
925 9.062731335462269 -1.777689815391066 0
926 9.297049540963393 -1.777710113249295 0
927 8.82868560146675 -1.555349837534394 0
928 8.828408830155549 -1.777673569224802 0
929 2.285815081107763 1.296025278392 0
930 9.297747235311165 -0.6663368671202545 0
931 9.063744434257181 -0.4439897164511469 0
932 9.297813746656116 -0.4440941890568473 0
933 9.063517228643216 -0.888510140321927 0
934 9.297642621923538 -0.888597219253638 0
935 8.82917773348604 -1.110728830409227 0
936 8.828940816786897 -1.333036201701705 0
937 -4.533380164596408 1.777718796671632 0
938 -4.766675219770908 1.777789363732009 0
939 -4.303350130612769 1.555236414599587 0
940 -4.300135882053032 1.777468949039605 0
941 -4.301141648899003 -1.099481827977267 0
942 -4.065603869110423 -1.320420872518206 0
943 -4.299628374848337 -1.324139954468899 0
944 9.297518472427896 1.111336503385373 0
945 9.063158976643003 1.333556672239492 0
946 9.297372406051567 1.333506046959868 0
947 9.06350961674298 0.8892357897226719 0
948 9.29763676237836 0.8891568446152238 0
949 -4.07021691865751 -0.8697609174245985 0
950 -4.303005350914929 -0.8753803419218773 0
951 -4.075751379254738 1.332556997051343 0
952 -4.30917301005998 1.11256793413287 0
953 -4.30642432593748 1.333553842644693 0
954 8.829168912316348 1.111454272272569 0
955 8.828934088114341 1.333597051073845 0
956 8.127362803250723 0.4451128267648962 0
957 8.361297348075835 0.6672453713954219 0
958 8.595561969215968 0.4450300723300291 0
959 8.361561337857282 0.2228961371170898 0
960 8.361451615816115 0.4450743821166499 0
961 -4.085800066657776 0.4560400177025926 0
962 -4.31277067328771 0.6725147709059893 0
963 -4.313245389207753 0.4529757998562208 0
964 8.829531557532702 0.6671369612721115 0
965 8.595220702123967 0.8893532672612695 0
966 8.829362639800269 0.8892976908885496 0
967 -3.833423596134496 -1.089148460118872 0
968 -3.830940458795677 -1.316150701247758 0
969 -4.311367398471696 0.8922781692565157 0
970 8.829726783712058 0.2227694215218172 0
971 8.829645725811531 0.4449568779394312 0
972 7.893396163287989 -0.2214756980640369 0
973 7.659369210691656 0.0007364431091512229 0
974 7.893388809737722 0.222942515186164 0
975 8.127509554495838 0.0007274652995243151 0
976 7.893423009476644 0.0007371623107596016 0
977 8.829540754801446 -0.6661611000316781 0
978 8.595232830144617 -0.8883768435712145 0
979 8.829371782344705 -0.8884413564280802 0
980 -3.84115794782426 -0.6384091445365879 0
981 -3.850798090422782 -0.1940456899167554 0
982 -3.615101128412681 -0.4057372075660375 0
983 -3.845943286965349 -0.4153148481759659 0
984 8.829730869433476 -0.2216608406980057 0
985 8.595675299349402 0.000635742885185604 0
986 8.829744834313111 0.0005578195004190302 0
987 -3.615119419565758 1.326147082285144 0
988 -3.845395551865699 1.330340419694293 0
989 -3.396609708025691 1.098230955592699 0
990 -3.384139251288685 1.318825296445278 0
991 8.595564646386563 -0.4438305576349318 0
992 8.829650526030733 -0.4439073650854407 0
993 -3.636410797888159 0.4631531397451389 0
994 -3.858426280312327 0.2429775215598428 0
995 -3.859904949503854 0.4593547316776319 0
996 -3.628516255141665 0.03383993700025561 0
997 -3.855168618810299 0.02533563270664059 0
998 -3.602639248239056 -0.8551338141860796 0
999 -3.836873641124923 -0.8631177673118255 0
1000 2.58060592874227 0.3795119857373435 0
1001 2.809150802430246 0.4006026125041582 0
1002 8.361560074218435 -0.2215325502761891 0
1003 8.361584047700479 0.0006861521433736053 0
1004 -2.938856865713184 -0.1375757955087109 0
1005 -3.17825874060213 0.06050011224477465 0
1006 -2.970433797729727 0.2955199829797542 0
1007 -2.952107555177595 0.0802284444489903 0
1008 -3.41141324533802 0.258649510526632 0
1009 -3.393631088442249 -0.1724508205057404 0
1010 -3.403048768016801 0.04513582424614952 0
1011 -3.416205760742288 0.6752067809144764 0
1012 -3.203434070490721 0.4759776645537877 0
1013 -3.41674714162365 0.4680561194019846 0
1014 7.659174992590231 0.4451095019313313 0
1015 7.893050883325348 0.6672794016092495 0
1016 7.893250470212832 0.4451147386886535 0
1017 -2.688858890040771 -0.3297156369710008 0
1018 -2.902249403602534 -0.5855174106409646 0
1019 -3.152463331246546 -0.3782040390228787 0
1020 -2.92081339745657 -0.3580796269694405 0
1021 -3.191555256489373 0.872166936466812 0
1022 -3.408677679665916 0.8840232162441453 0
1023 -3.374777483019392 -0.618103135804238 0
1024 -3.383971094215195 -0.3936375427268062 0
1025 8.126916598688506 0.889415517155117 0
1026 8.361064440342473 0.8893895529431937 0
1027 -2.137715743186054 0.3362714248310752 0
1028 -2.543282514279593 0.5204801029341224 0
1029 -2.301939064308304 0.6205783004809827 0
1030 -2.363794497367945 0.4194560953963265 0
1031 7.658627964204341 0.8894104876013801 0
1032 7.892761068912488 0.8894184501519579 0
1033 7.893067700800449 -0.6659886188942757 0
1034 8.126933265510349 -0.88829769926909 0
1035 7.892781342782002 -0.8882852314750392 0
1036 7.425269878285405 0.2228989899197229 0
1037 7.19132707862443 0.0006513027091769111 0
1038 7.425319405835069 0.0006993571726911646 0
1039 -3.0142643961197 0.6686281629021841 0
1040 -2.807073159087262 0.7769079211688895 0
1041 -2.984320112954599 0.8454015359042432 0
1042 1.394695924128161 -0.9985182178628812 0
1043 1.580691998360425 -1.254240854159479 0
1044 1.354918859479131 -1.222314619745938 0
1045 7.424851643906258 0.6672328968986376 0
1046 7.424500488864942 0.889376065035118 0
1047 -3.128971879087539 -0.8335428427278246 0
1048 -3.366955724573527 -0.8454275463446332 0
1049 1.446383093329211 0.2462495817371456 0
1050 1.286179094008515 0.3873876427110314 0
1051 1.42808526752133 0.5988623456265599 0
1052 1.453684806039875 0.4172698389152753 0
1053 -1.71066337850541 -0.2150785106205791 0
1054 -1.495578363026325 0.002217354882558557 0
1055 -1.29594590198864 -0.2118522707466207 0
1056 -1.476265323157071 -0.4259620873485985 0
1057 -1.494188295686684 -0.212549792648612 0
1058 1.061550303888136 0.5000466310205307 0
1059 0.9090002062091544 0.9070263921889102 0
1060 1.190305752841699 0.7559018230089831 0
1061 0.9824825145426159 0.6934595409742058 0
1062 -2.639341654490364 -0.8008331948646917 0
1063 -2.8872360326489 -0.8189103934354737 0
1064 6.022547720704961 0.2222379379050088 0
1065 6.255732355324856 0.4445664625523231 0
1066 6.022198832641757 0.4443888908127726 0
1067 1.805281427173108 -1.26017984082215 0
1068 8.361302021212232 -0.6660433244658506 0
1069 8.361076409418606 -0.8883343433021282 0
1070 2.579771162359481 -0.8082740249305911 0
1071 2.808088140436454 -0.8378162591212757 0
1072 -2.41449246568573 -0.5296796299601466 0
1073 -2.202017768824597 -0.2436184669960491 0
1074 -2.451682999670981 -0.2873655630550804 0
1075 -2.822462965845907 0.546770300475544 0
1076 -3.000888912558573 0.49353772818689 0
1077 -0.7298205635585564 -1.05142392446924 0
1078 -0.9933175095431706 -1.227675693172064 0
1079 -1.199732071329665 -1.02019059613 0
1080 -0.9630183153144674 -0.8182481542989245 0
1081 -0.9664376699098312 -1.025707053394196 0
1082 -0.9969931011884618 1.21337720671856 0
1083 -0.7292413689767177 1.043845631609514 0
1084 -0.9620984510343762 0.8054844618227646 0
1085 -1.204810582467516 0.9945087015182146 0
1086 -0.9682273154991097 1.01095900347476 0
1087 -1.681991102814046 1.359744690117788 0
1088 -1.888854264463643 1.122457433173297 0
1089 -2.148485672526701 1.316237216241678 0
1090 -1.91210521723288 1.339271736240075 0
1091 2.024925139958396 -0.4622881255386475 0
1092 1.942006738184223 -0.205407463757401 0
1093 2.20156151884043 -0.144703152915008 0
1094 2.109113857704382 -0.298822293859614 0
1095 6.256146614295596 0.0002382919090718576 0
1096 6.489672209803814 0.2225457063421046 0
1097 6.7235263922107 0.0004829845144734636 0
1098 6.4897664133668 0.0003661409422926192 0
1099 8.127360523558298 -0.4437416993991748 0
1100 7.893260756737736 -0.4437276287016874 0
1101 8.361454073009728 -0.4437825147836297 0
1102 -0.3380571712743565 -1.753109237370168 0
1103 -0.08627421132423763 -1.49120728866754 0
1104 -0.090669089896116 -1.748167563846035 0
1105 -2.36285645486782 -1.0338743513803 0
1106 -2.111726068688837 -1.305926173564085 0
1107 -2.369288570887623 -1.288696880405503 0
1108 2.35894892454127 0.173535413085185 0
1109 2.165041933807022 0.320480356320637 0
1110 2.357376391423279 0.3646184811253763 0
1111 -1.651700262717906 -1.376348968539476 0
1112 -1.872140102576213 -1.342741993401956 0
1113 -2.365439770059091 1.050145344342051 0
1114 -2.3954316076637 1.291857382718142 0
1115 -2.12319009264636 -0.7410568698202781 0
1116 -1.923263017164395 -0.4619333161562457 0
1117 -1.662672890290553 -0.6521938183855696 0
1118 -1.882817937983661 -0.6915087601650309 0
1119 2.131796893006731 -0.7243611232221482 0
1120 2.348745861417213 -0.7782832392071118 0
1121 6.723214857972731 0.444838152692982 0
1122 7.191082356650013 0.4450166721144065 0
1123 6.957309614048209 0.2227629525207424 0
1124 6.957105621543691 0.4449341726172881 0
1125 3.243825062687639 -0.2211882889789815 0
1126 3.24950979524153 -0.4426597212691564 0
1127 2.464768559831189 -0.08995975271181798 0
1128 2.628519259277654 -0.2231927914551571 0
1129 4.166072690944187 -0.2226453603703691 0
1130 4.165313575886689 -0.4436448369972883 0
1131 3.249790032673237 0.0002920152290506655 0
1132 5.789425393720459 -7.556560133165253e-05 0
1133 6.022684108518408 8.712376501682911e-05 0
1134 4.166134983090051 -0.001699382076814866 0
1135 5.323153456035949 -0.4444841348677112 0
1136 5.556320699292387 -0.2223310380563668 0
1137 5.555944328484912 -0.444416202457555 0
1138 5.091178717787951 -0.2225772351067059 0
1139 5.090687293319099 -0.4445095795348964 0
1140 5.323669265960922 -0.0004478924964715136 0
1141 5.556404347621757 -0.0002553925626529781 0
1142 5.091265659968916 -0.0006553799000252573 0
1143 -1.68227010520639 0.2284521253223098 0
1144 -1.945909094558498 0.02774268803063433 0
1145 -1.901870561352693 0.2684469447383381 0
1146 7.425100841870949 0.4450684747062918 0
1147 -0.2769177724869967 1.185441402854886 0
1148 -0.04929877202457522 1.482895296494335 0
1149 -0.02510761568477626 1.221454205275603 0
1150 1.271166555945816 -0.1047841335718949 0
1151 1.400113241904748 -0.3747082698081001 0
1152 1.19274593615199 -0.2963797594865191 0
1153 0.8678356469495665 -0.8054466303133602 0
1154 1.765511579741798 -0.5434750458816031 0
1155 1.941078295040164 -0.6372444553851573 0
1156 -1.641412259598776 0.9505004234709504 0
1157 -2.085612915561022 0.8639134278832306 0
1158 -1.857514382174971 0.9100323679500516 0
1159 -1.233890823925253 -0.623804064175621 0
1160 -1.425436398898918 -0.8292764371617828 0
1161 -1.449495910795396 -0.6325152513332968 0
1162 -1.421102630329559 -1.204558376437928 0
1163 -1.41498316708659 -1.017898653574961 0
1164 -1.223451912192584 -1.407618080600758 0
1165 -1.437412933179261 -1.395616086285553 0
1166 2.145309712161169 0.09745001130075646 0
1167 1.877017475404604 0.06803516278818422 0
1168 2.009925246401176 0.2165023728747454 0
1169 -1.421250110258329 0.7850143413646011 0
1170 -1.440864468022714 1.174394429133639 0
1171 -1.42698136284849 0.976331524182666 0
1172 -0.3279832625622698 1.750855068328538 0
1173 -0.06780330100473941 1.749807649397153 0
1174 0.7787459085912571 1.366442795228807 0
1175 0.638413882774719 1.554677248278625 0
1176 -1.453293259433614 0.4100429124226732 0
1177 -1.289092424249926 0.207153363963836 0
1178 -1.479510834842633 0.2115142583180661 0
1179 -1.069580946274031 0.4152262310185463 0
1180 -1.134416394355251 -0.001115050416337743 0
1181 -1.116589663423554 0.2107482909734007 0
1182 1.51567477165875 -0.6281028192838756 0
1183 1.449755037622817 -0.803260773909143 0
1184 -1.073568747643735 -0.4214292531489347 0
1185 -1.119257649605551 -0.2140886424879294 0
1186 -0.5753414406376645 -1.775388938072559 0
1187 -0.5716440110327721 1.772596315353678 0
1188 -1.233401083204223 1.392267715243804 0
1189 -1.455933959926337 1.3772646576262 0
1190 6.48940935335637 0.4447113350517947 0
1191 -2.518208216726463 0.7632650833078425 0
1192 -2.317328054052322 0.8254164385598196 0
1193 6.95737995568507 0.0005722034873392769 0
1194 -0.2875745097889526 -1.190810709068232 0
1195 0.1799535330742206 -1.270985842494493 0
1196 -0.05132708119332374 -1.236118717396772 0
1197 -1.01733412675087 1.406320309889056 0
1198 -1.013226445664857 -1.417878574605672 0
1199 -2.381851138129171 -0.7778834176245205 0
1200 -1.225418908238312 0.6037545755525844 0
1201 -1.430310758302486 0.5987469363999829 0
1202 -0.5055364957546171 1.111511298771143 0
1203 -0.5093423511028292 -1.116016588721549 0
1204 1.607627469827718 0.8188873399406512 0
1205 1.397660213346762 0.797734057724568 0
1206 1.669975035795728 -0.2820552051021277 0
1207 1.587948885611869 -0.4567307634756703 0
1208 1.218133030734322 0.1733796462881181 0
1209 1.12839701465041 0.3191103322864596 0
1210 2.29661731163783 0.00827480463184012 0
1211 1.571238501165875 -0.006420304942222852 0
1212 1.764182502528927 -0.1037815883325722 0
1213 -1.008760049670323 -0.6194287154816919 0
1214 -1.005495379956871 0.6098150964891472 0
1215 0.566460559480346 -1.340493295422177 0
1216 0.7340578422657746 -1.307902441107776 0
1217 -1.948471488788082 -0.2210654452486231 0
1218 -2.673674996862646 0.6529549534755692 0
1219 0.3873095882343534 -1.317661079940109 0
1220 1.826148570717561 0.8195170774898806 0
1221 1.374022558412652 0.07599630833373942 0
1222 0.8554847995687107 1.144583915224291 0
$EndNodes
$Elements
1318
1 1 2 5 5 1 6
2 1 2 5 5 6 7
3 1 2 5 5 7 8
4 1 2 5 5 8 9
5 1 2 5 5 9 10
6 1 2 5 5 10 11
7 1 2 5 5 11 12
8 1 2 5 5 12 13
9 1 2 5 5 13 14
10 1 2 5 5 14 15
11 1 2 5 5 15 16
12 1 2 5 5 16 17
13 1 2 5 5 17 18
14 1 2 5 5 18 19
15 1 2 5 5 19 20
16 1 2 5 5 20 21
17 1 2 5 5 21 22
18 1 2 5 5 22 23
19 1 2 5 5 23 24
20 1 2 5 5 24 25
21 1 2 5 5 25 26
22 1 2 5 5 26 27
23 1 2 5 5 27 28
24 1 2 5 5 28 29
25 1 2 5 5 29 30
26 1 2 5 5 30 31
27 1 2 5 5 31 32
28 1 2 5 5 32 1
29 1 2 3 6 2 33
30 1 2 3 6 33 34
31 1 2 3 6 34 35
32 1 2 3 6 35 36
33 1 2 3 6 36 37
34 1 2 3 6 37 38
35 1 2 3 6 38 39
36 1 2 3 6 39 40
37 1 2 3 6 40 41
38 1 2 3 6 41 42
39 1 2 3 6 42 43
40 1 2 3 6 43 44
41 1 2 3 6 44 45
42 1 2 3 6 45 46
43 1 2 3 6 46 47
44 1 2 3 6 47 48
45 1 2 3 6 48 49
46 1 2 3 6 49 50
47 1 2 3 6 50 51
48 1 2 3 6 51 52
49 1 2 3 6 52 53
50 1 2 3 6 53 54
51 1 2 3 6 54 55
52 1 2 3 6 55 56
53 1 2 3 6 56 57
54 1 2 3 6 57 58
55 1 2 3 6 58 59
56 1 2 3 6 59 60
57 1 2 3 6 60 61
58 1 2 3 6 61 62
59 1 2 3 6 62 63
60 1 2 3 6 63 64
61 1 2 3 6 64 65
62 1 2 3 6 65 66
63 1 2 3 6 66 67
64 1 2 3 6 67 68
65 1 2 3 6 68 69
66 1 2 3 6 69 70
67 1 2 3 6 70 71
68 1 2 3 6 71 72
69 1 2 3 6 72 73
70 1 2 3 6 73 74
71 1 2 3 6 74 75
72 1 2 3 6 75 76
73 1 2 3 6 76 77
74 1 2 3 6 77 78
75 1 2 3 6 78 79
76 1 2 3 6 79 80
77 1 2 3 6 80 81
78 1 2 3 6 81 82
79 1 2 3 6 82 83
80 1 2 3 6 83 84
81 1 2 3 6 84 85
82 1 2 3 6 85 86
83 1 2 3 6 86 87
84 1 2 3 6 87 88
85 1 2 3 6 88 89
86 1 2 3 6 89 90
87 1 2 3 6 90 91
88 1 2 3 6 91 92
89 1 2 3 6 92 93
90 1 2 3 6 93 94
91 1 2 3 6 94 95
92 1 2 3 6 95 3
93 1 2 1 7 4 96
94 1 2 1 7 96 97
95 1 2 1 7 97 98
96 1 2 1 7 98 99
97 1 2 1 7 99 100
98 1 2 1 7 100 101
99 1 2 1 7 101 102
100 1 2 1 7 102 103
101 1 2 1 7 103 104
102 1 2 1 7 104 105
103 1 2 1 7 105 106
104 1 2 1 7 106 107
105 1 2 1 7 107 108
106 1 2 1 7 108 109
107 1 2 1 7 109 110
108 1 2 1 7 110 111
109 1 2 1 7 111 112
110 1 2 1 7 112 2
111 1 2 2 8 3 113
112 1 2 2 8 113 114
113 1 2 2 8 114 115
114 1 2 2 8 115 116
115 1 2 2 8 116 117
116 1 2 2 8 117 118
117 1 2 2 8 118 119
118 1 2 2 8 119 120
119 1 2 2 8 120 121
120 1 2 2 8 121 122
121 1 2 2 8 122 123
122 1 2 2 8 123 124
123 1 2 2 8 124 125
124 1 2 2 8 125 126
125 1 2 2 8 126 127
126 1 2 2 8 127 128
127 1 2 2 8 128 129
128 1 2 2 8 129 5
129 1 2 4 9 5 130
130 1 2 4 9 130 131
131 1 2 4 9 131 132
132 1 2 4 9 132 133
133 1 2 4 9 133 134
134 1 2 4 9 134 135
135 1 2 4 9 135 136
136 1 2 4 9 136 137
137 1 2 4 9 137 138
138 1 2 4 9 138 139
139 1 2 4 9 139 140
140 1 2 4 9 140 141
141 1 2 4 9 141 142
142 1 2 4 9 142 143
143 1 2 4 9 143 144
144 1 2 4 9 144 145
145 1 2 4 9 145 146
146 1 2 4 9 146 147
147 1 2 4 9 147 148
148 1 2 4 9 148 149
149 1 2 4 9 149 150
150 1 2 4 9 150 151
151 1 2 4 9 151 152
152 1 2 4 9 152 153
153 1 2 4 9 153 154
154 1 2 4 9 154 155
155 1 2 4 9 155 156
156 1 2 4 9 156 157
157 1 2 4 9 157 158
158 1 2 4 9 158 159
159 1 2 4 9 159 160
160 1 2 4 9 160 161
161 1 2 4 9 161 162
162 1 2 4 9 162 163
163 1 2 4 9 163 164
164 1 2 4 9 164 165
165 1 2 4 9 165 166
166 1 2 4 9 166 167
167 1 2 4 9 167 168
168 1 2 4 9 168 169
169 1 2 4 9 169 170
170 1 2 4 9 170 171
171 1 2 4 9 171 172
172 1 2 4 9 172 173
173 1 2 4 9 173 174
174 1 2 4 9 174 175
175 1 2 4 9 175 176
176 1 2 4 9 176 177
177 1 2 4 9 177 178
178 1 2 4 9 178 179
179 1 2 4 9 179 180
180 1 2 4 9 180 181
181 1 2 4 9 181 182
182 1 2 4 9 182 183
183 1 2 4 9 183 184
184 1 2 4 9 184 185
185 1 2 4 9 185 186
186 1 2 4 9 186 187
187 1 2 4 9 187 188
188 1 2 4 9 188 189
189 1 2 4 9 189 190
190 1 2 4 9 190 191
191 1 2 4 9 191 192
192 1 2 4 9 192 4
193 3 2 10 1 224 425 426 423
194 3 2 10 1 222 423 426 424
195 3 2 10 1 250 424 426 425
196 3 2 10 1 223 429 430 427
197 3 2 10 1 220 427 430 428
198 3 2 10 1 249 428 430 429
199 3 2 10 1 171 432 433 170
200 3 2 10 1 169 170 433 431
201 3 2 10 1 246 431 433 432
202 3 2 10 1 31 436 437 434
203 3 2 10 1 199 434 437 435
204 3 2 10 1 291 435 437 436
205 3 2 10 1 221 440 441 438
206 3 2 10 1 245 438 441 439
207 3 2 10 1 291 439 441 440
208 3 2 10 1 293 444 445 442
209 3 2 10 1 256 442 445 443
210 3 2 10 1 313 443 445 444
211 3 2 10 1 257 448 449 446
212 3 2 10 1 325 446 449 447
213 3 2 10 1 360 447 449 448
214 3 2 10 1 363 452 453 450
215 3 2 10 1 387 450 453 451
216 3 2 10 1 406 451 453 452
217 3 2 10 1 169 455 456 168
218 3 2 10 1 167 168 456 454
219 3 2 10 1 218 454 456 455
220 3 2 10 1 338 459 460 457
221 3 2 10 1 375 457 460 458
222 3 2 10 1 387 458 460 459
223 3 2 10 1 388 463 464 461
224 3 2 10 1 374 461 464 462
225 3 2 10 1 405 462 464 463
226 3 2 10 1 390 467 468 465
227 3 2 10 1 406 465 468 466
228 3 2 10 1 414 466 468 467
229 3 2 10 1 362 471 472 469
230 3 2 10 1 346 469 472 470
231 3 2 10 1 389 470 472 471
232 3 2 10 1 312 475 476 473
233 3 2 10 1 330 473 476 474
234 3 2 10 1 331 474 476 475
235 3 2 10 1 193 479 480 477
236 3 2 10 1 68 477 480 67
237 3 2 10 1 66 67 480 478
238 3 2 10 1 270 478 480 479
239 3 2 10 1 305 484 485 481
240 3 2 10 1 280 481 485 482
241 3 2 10 1 239 482 485 483
242 3 2 10 1 323 483 485 484
243 3 2 10 1 218 487 488 454
244 3 2 10 1 167 454 488 166
245 3 2 10 1 165 166 488 486
246 3 2 10 1 234 486 488 487
247 3 2 10 1 210 491 492 489
248 3 2 10 1 135 489 492 134
249 3 2 10 1 133 134 492 490
250 3 2 10 1 228 490 492 491
251 3 2 10 1 219 495 496 493
252 3 2 10 1 177 493 496 176
253 3 2 10 1 175 176 496 494
254 3 2 10 1 250 494 496 495
255 3 2 10 1 301 500 501 497
256 3 2 10 1 353 497 501 498
257 3 2 10 1 194 498 501 499
258 3 2 10 1 274 499 501 500
259 3 2 10 1 194 504 505 498
260 3 2 10 1 353 498 505 502
261 3 2 10 1 300 502 505 503
262 3 2 10 1 275 503 505 504
263 3 2 10 1 304 509 510 506
264 3 2 10 1 197 506 510 507
265 3 2 10 1 278 507 510 508
266 3 2 10 1 320 508 510 509
267 3 2 10 1 221 513 514 511
268 3 2 10 1 58 511 514 57
269 3 2 10 1 56 57 514 512
270 3 2 10 1 251 512 514 513
271 3 2 10 1 212 516 517 515
272 3 2 10 1 179 515 517 178
273 3 2 10 1 177 178 517 493
274 3 2 10 1 219 493 517 516
275 3 2 10 1 214 519 520 518
276 3 2 10 1 60 518 520 59
277 3 2 10 1 58 59 520 511
278 3 2 10 1 221 511 520 519
279 3 2 10 1 270 522 523 478
280 3 2 10 1 66 478 523 65
281 3 2 10 1 64 65 523 521
282 3 2 10 1 231 521 523 522
283 3 2 10 1 211 526 527 524
284 3 2 10 1 46 524 527 45
285 3 2 10 1 44 45 527 525
286 3 2 10 1 232 525 527 526
287 3 2 10 1 193 477 530 528
288 3 2 10 1 273 528 530 529
289 3 2 10 1 70 529 530 69
290 3 2 10 1 68 69 530 477
291 3 2 10 1 70 71 533 529
292 3 2 10 1 273 529 533 531
293 3 2 10 1 235 531 533 532
294 3 2 10 1 72 532 533 71
295 3 2 10 1 74 75 536 534
296 3 2 10 1 274 534 536 499
297 3 2 10 1 194 499 536 535
298 3 2 10 1 76 535 536 75
299 3 2 10 1 235 532 538 537
300 3 2 10 1 274 537 538 534
301 3 2 10 1 74 534 538 73
302 3 2 10 1 72 73 538 532
303 3 2 10 1 194 535 540 504
304 3 2 10 1 275 504 540 539
305 3 2 10 1 78 539 540 77
306 3 2 10 1 76 77 540 535
307 3 2 10 1 78 79 543 539
308 3 2 10 1 275 539 543 541
309 3 2 10 1 236 541 543 542
310 3 2 10 1 80 542 543 79
311 3 2 10 1 209 546 547 544
312 3 2 10 1 189 544 547 188
313 3 2 10 1 187 188 547 545
314 3 2 10 1 233 545 547 546
315 3 2 10 1 82 83 551 548
316 3 2 10 1 276 548 551 549
317 3 2 10 1 195 549 551 550
318 3 2 10 1 84 550 551 83
319 3 2 10 1 236 542 553 552
320 3 2 10 1 276 552 553 548
321 3 2 10 1 82 548 553 81
322 3 2 10 1 80 81 553 542
323 3 2 10 1 206 556 557 554
324 3 2 10 1 90 554 557 89
325 3 2 10 1 88 89 557 555
326 3 2 10 1 237 555 557 556
327 3 2 10 1 321 560 561 558
328 3 2 10 1 195 558 561 549
329 3 2 10 1 276 549 561 559
330 3 2 10 1 322 559 561 560
331 3 2 10 1 235 564 565 531
332 3 2 10 1 273 531 565 562
333 3 2 10 1 318 562 565 563
334 3 2 10 1 348 563 565 564
335 3 2 10 1 141 142 569 566
336 3 2 10 1 277 566 569 567
337 3 2 10 1 238 567 569 568
338 3 2 10 1 143 568 569 142
339 3 2 10 1 196 571 572 570
340 3 2 10 1 277 570 572 566
341 3 2 10 1 141 566 572 140
342 3 2 10 1 139 140 572 571
343 3 2 10 1 161 575 576 160
344 3 2 10 1 159 160 576 573
345 3 2 10 1 240 573 576 574
346 3 2 10 1 208 574 576 575
347 3 2 10 1 145 146 579 577
348 3 2 10 1 278 577 579 507
349 3 2 10 1 197 507 579 578
350 3 2 10 1 147 578 579 146
351 3 2 10 1 238 568 581 580
352 3 2 10 1 278 580 581 577
353 3 2 10 1 145 577 581 144
354 3 2 10 1 143 144 581 568
355 3 2 10 1 197 578 584 582
356 3 2 10 1 279 582 584 583
357 3 2 10 1 149 583 584 148
358 3 2 10 1 147 148 584 578
359 3 2 10 1 149 150 587 583
360 3 2 10 1 279 583 587 585
361 3 2 10 1 239 585 587 586
362 3 2 10 1 151 586 587 150
363 3 2 10 1 153 154 591 588
364 3 2 10 1 280 588 591 589
365 3 2 10 1 198 589 591 590
366 3 2 10 1 155 590 591 154
367 3 2 10 1 239 586 592 482
368 3 2 10 1 280 482 592 588
369 3 2 10 1 153 588 592 152
370 3 2 10 1 151 152 592 586
371 3 2 10 1 137 594 595 136
372 3 2 10 1 135 136 595 489
373 3 2 10 1 210 489 595 593
374 3 2 10 1 269 593 595 594
375 3 2 10 1 196 596 597 571
376 3 2 10 1 139 571 597 138
377 3 2 10 1 137 138 597 594
378 3 2 10 1 269 594 597 596
379 3 2 10 1 301 598 599 500
380 3 2 10 1 274 500 599 537
381 3 2 10 1 235 537 599 564
382 3 2 10 1 348 564 599 598
383 3 2 10 1 124 125 603 600
384 3 2 10 1 229 600 603 601
385 3 2 10 1 230 601 603 602
386 3 2 10 1 126 602 603 125
387 3 2 10 1 107 108 607 604
388 3 2 10 1 207 604 607 605
389 3 2 10 1 225 605 607 606
390 3 2 10 1 109 606 607 108
391 3 2 10 1 122 123 610 608
392 3 2 10 1 201 608 610 609
393 3 2 10 1 229 609 610 600
394 3 2 10 1 124 600 610 123
395 3 2 10 1 226 613 614 611
396 3 2 10 1 227 611 614 612
397 3 2 10 1 99 612 614 98
398 3 2 10 1 97 98 614 613
399 3 2 10 1 215 617 618 615
400 3 2 10 1 241 615 618 616
401 3 2 10 1 118 616 618 117
402 3 2 10 1 116 117 618 617
403 3 2 10 1 353 621 622 497
404 3 2 10 1 301 497 622 619
405 3 2 10 1 399 619 622 620
406 3 2 10 1 379 620 622 621
407 3 2 10 1 279 624 625 582
408 3 2 10 1 197 582 625 506
409 3 2 10 1 304 506 625 623
410 3 2 10 1 352 623 625 624
411 3 2 10 1 238 628 629 567
412 3 2 10 1 277 567 629 626
413 3 2 10 1 303 626 629 627
414 3 2 10 1 350 627 629 628
415 3 2 10 1 336 632 633 630
416 3 2 10 1 304 630 633 509
417 3 2 10 1 320 509 633 631
418 3 2 10 1 383 631 633 632
419 3 2 10 1 239 483 635 585
420 3 2 10 1 279 585 635 624
421 3 2 10 1 352 624 635 634
422 3 2 10 1 323 634 635 483
423 3 2 10 1 278 508 637 580
424 3 2 10 1 238 580 637 628
425 3 2 10 1 350 628 637 636
426 3 2 10 1 320 636 637 508
427 3 2 10 1 384 640 641 638
428 3 2 10 1 335 638 641 639
429 3 2 10 1 305 639 641 484
430 3 2 10 1 323 484 641 640
431 3 2 10 1 304 623 644 630
432 3 2 10 1 336 630 644 642
433 3 2 10 1 370 642 644 643
434 3 2 10 1 352 643 644 623
435 3 2 10 1 401 646 647 645
436 3 2 10 1 300 645 647 502
437 3 2 10 1 353 502 647 621
438 3 2 10 1 379 621 647 646
439 3 2 10 1 410 651 652 648
440 3 2 10 1 395 648 652 649
441 3 2 10 1 384 649 652 650
442 3 2 10 1 370 650 652 651
443 3 2 10 1 384 650 653 640
444 3 2 10 1 323 640 653 634
445 3 2 10 1 352 634 653 643
446 3 2 10 1 370 643 653 650
447 3 2 10 1 383 655 656 631
448 3 2 10 1 320 631 656 636
449 3 2 10 1 350 636 656 654
450 3 2 10 1 365 654 656 655
451 3 2 10 1 277 626 659 570
452 3 2 10 1 196 570 659 657
453 3 2 10 1 342 657 659 658
454 3 2 10 1 303 658 659 626
455 3 2 10 1 370 651 662 642
456 3 2 10 1 336 642 662 660
457 3 2 10 1 396 660 662 661
458 3 2 10 1 410 661 662 651
459 3 2 10 1 365 664 665 654
460 3 2 10 1 350 654 665 627
461 3 2 10 1 303 627 665 663
462 3 2 10 1 397 663 665 664
463 3 2 10 1 236 667 668 541
464 3 2 10 1 275 541 668 503
465 3 2 10 1 300 503 668 666
466 3 2 10 1 349 666 668 667
467 3 2 10 1 276 559 670 552
468 3 2 10 1 236 552 670 667
469 3 2 10 1 349 667 670 669
470 3 2 10 1 322 669 670 559
471 3 2 10 1 384 638 673 649
472 3 2 10 1 395 649 673 671
473 3 2 10 1 412 671 673 672
474 3 2 10 1 335 672 673 638
475 3 2 10 1 401 677 678 674
476 3 2 10 1 418 674 678 675
477 3 2 10 1 413 675 678 676
478 3 2 10 1 367 676 678 677
479 3 2 10 1 227 612 681 679
480 3 2 10 1 282 679 681 680
481 3 2 10 1 101 680 681 100
482 3 2 10 1 99 100 681 612
483 3 2 10 1 351 683 684 682
484 3 2 10 1 198 682 684 589
485 3 2 10 1 280 589 684 481
486 3 2 10 1 305 481 684 683
487 3 2 10 1 322 560 688 685
488 3 2 10 1 381 685 688 686
489 3 2 10 1 347 686 688 687
490 3 2 10 1 321 687 688 560
491 3 2 10 1 300 666 690 645
492 3 2 10 1 401 645 690 677
493 3 2 10 1 367 677 690 689
494 3 2 10 1 349 689 690 666
495 3 2 10 1 399 692 693 619
496 3 2 10 1 301 619 693 598
497 3 2 10 1 348 598 693 691
498 3 2 10 1 366 691 693 692
499 3 2 10 1 381 694 695 685
500 3 2 10 1 322 685 695 669
501 3 2 10 1 349 669 695 689
502 3 2 10 1 367 689 695 694
503 3 2 10 1 318 563 698 696
504 3 2 10 1 400 696 698 697
505 3 2 10 1 366 697 698 691
506 3 2 10 1 348 691 698 563
507 3 2 10 1 273 562 701 528
508 3 2 10 1 193 528 701 699
509 3 2 10 1 343 699 701 700
510 3 2 10 1 318 700 701 562
511 3 2 10 1 367 694 704 676
512 3 2 10 1 413 676 704 702
513 3 2 10 1 394 702 704 703
514 3 2 10 1 381 703 704 694
515 3 2 10 1 335 707 708 672
516 3 2 10 1 412 672 708 705
517 3 2 10 1 393 705 708 706
518 3 2 10 1 378 706 708 707
519 3 2 10 1 305 683 710 639
520 3 2 10 1 335 639 710 707
521 3 2 10 1 378 707 710 709
522 3 2 10 1 351 709 710 683
523 3 2 10 1 86 712 713 85
524 3 2 10 1 84 85 713 550
525 3 2 10 1 195 550 713 711
526 3 2 10 1 272 711 713 712
527 3 2 10 1 101 102 716 680
528 3 2 10 1 282 680 716 714
529 3 2 10 1 203 714 716 715
530 3 2 10 1 103 715 716 102
531 3 2 10 1 157 718 719 156
532 3 2 10 1 155 156 719 590
533 3 2 10 1 198 590 719 717
534 3 2 10 1 271 717 719 718
535 3 2 10 1 399 722 723 692
536 3 2 10 1 366 692 723 720
537 3 2 10 1 417 720 723 721
538 3 2 10 1 419 721 723 722
539 3 2 10 1 62 725 726 61
540 3 2 10 1 60 61 726 518
541 3 2 10 1 214 518 726 724
542 3 2 10 1 268 724 726 725
543 3 2 10 1 392 728 729 727
544 3 2 10 1 347 727 729 686
545 3 2 10 1 381 686 729 703
546 3 2 10 1 394 703 729 728
547 3 2 10 1 380 731 732 730
548 3 2 10 1 400 730 732 696
549 3 2 10 1 318 696 732 700
550 3 2 10 1 343 700 732 731
551 3 2 10 1 105 734 735 104
552 3 2 10 1 103 104 735 715
553 3 2 10 1 203 715 735 733
554 3 2 10 1 281 733 735 734
555 3 2 10 1 181 737 738 180
556 3 2 10 1 179 180 738 515
557 3 2 10 1 212 515 738 736
558 3 2 10 1 264 736 738 737
559 3 2 10 1 252 742 743 739
560 3 2 10 1 317 739 743 740
561 3 2 10 1 333 740 743 741
562 3 2 10 1 382 741 743 742
563 3 2 10 1 343 745 746 699
564 3 2 10 1 193 699 746 479
565 3 2 10 1 270 479 746 744
566 3 2 10 1 302 744 746 745
567 3 2 10 1 231 522 749 747
568 3 2 10 1 344 747 749 748
569 3 2 10 1 302 748 749 744
570 3 2 10 1 270 744 749 522
571 3 2 10 1 120 751 752 119
572 3 2 10 1 118 119 752 616
573 3 2 10 1 241 616 752 750
574 3 2 10 1 283 750 752 751
575 3 2 10 1 38 755 756 37
576 3 2 10 1 36 37 756 753
577 3 2 10 1 217 753 756 754
578 3 2 10 1 263 754 756 755
579 3 2 10 1 42 759 760 41
580 3 2 10 1 40 41 760 757
581 3 2 10 1 205 757 760 758
582 3 2 10 1 265 758 760 759
583 3 2 10 1 88 555 762 87
584 3 2 10 1 86 87 762 712
585 3 2 10 1 272 712 762 761
586 3 2 10 1 237 761 762 555
587 3 2 10 1 185 765 766 184
588 3 2 10 1 183 184 766 763
589 3 2 10 1 204 763 766 764
590 3 2 10 1 266 764 766 765
591 3 2 10 1 159 573 768 158
592 3 2 10 1 157 158 768 718
593 3 2 10 1 271 718 768 767
594 3 2 10 1 240 767 768 573
595 3 2 10 1 163 770 771 162
596 3 2 10 1 161 162 771 575
597 3 2 10 1 208 575 771 769
598 3 2 10 1 267 769 771 770
599 3 2 10 1 334 774 775 772
600 3 2 10 1 299 772 775 773
601 3 2 10 1 321 773 775 687
602 3 2 10 1 347 687 775 774
603 3 2 10 1 412 777 778 671
604 3 2 10 1 395 671 778 776
605 3 2 10 1 419 776 778 721
606 3 2 10 1 417 721 778 777
607 3 2 10 1 64 521 780 63
608 3 2 10 1 62 63 780 725
609 3 2 10 1 268 725 780 779
610 3 2 10 1 231 779 780 521
611 3 2 10 1 347 774 783 727
612 3 2 10 1 392 727 783 781
613 3 2 10 1 373 781 783 782
614 3 2 10 1 334 782 783 774
615 3 2 10 1 240 574 786 784
616 3 2 10 1 317 784 786 739
617 3 2 10 1 252 739 786 785
618 3 2 10 1 208 785 786 574
619 3 2 10 1 198 717 789 682
620 3 2 10 1 351 682 789 787
621 3 2 10 1 298 787 789 788
622 3 2 10 1 271 788 789 717
623 3 2 10 1 316 792 793 790
624 3 2 10 1 253 790 793 791
625 3 2 10 1 206 791 793 556
626 3 2 10 1 237 556 793 792
627 3 2 10 1 369 795 796 794
628 3 2 10 1 298 794 796 787
629 3 2 10 1 351 787 796 709
630 3 2 10 1 378 709 796 795
631 3 2 10 1 207 797 798 604
632 3 2 10 1 107 604 798 106
633 3 2 10 1 105 106 798 734
634 3 2 10 1 281 734 798 797
635 3 2 10 1 195 711 800 558
636 3 2 10 1 321 558 800 773
637 3 2 10 1 299 773 800 799
638 3 2 10 1 272 799 800 711
639 3 2 10 1 393 804 805 801
640 3 2 10 1 421 801 805 802
641 3 2 10 1 415 802 805 803
642 3 2 10 1 391 803 805 804
643 3 2 10 1 183 763 807 182
644 3 2 10 1 181 182 807 737
645 3 2 10 1 264 737 807 806
646 3 2 10 1 204 806 807 763
647 3 2 10 1 48 809 810 47
648 3 2 10 1 46 47 810 524
649 3 2 10 1 211 524 810 808
650 3 2 10 1 262 808 810 809
651 3 2 10 1 201 811 812 608
652 3 2 10 1 122 608 812 121
653 3 2 10 1 120 121 812 751
654 3 2 10 1 283 751 812 811
655 3 2 10 1 317 813 814 784
656 3 2 10 1 240 784 814 767
657 3 2 10 1 271 767 814 788
658 3 2 10 1 298 788 814 813
659 3 2 10 1 40 757 816 39
660 3 2 10 1 38 39 816 755
661 3 2 10 1 263 755 816 815
662 3 2 10 1 205 815 816 757
663 3 2 10 1 327 820 821 817
664 3 2 10 1 261 817 821 818
665 3 2 10 1 314 818 821 819
666 3 2 10 1 341 819 821 820
667 3 2 10 1 330 823 824 822
668 3 2 10 1 344 822 824 747
669 3 2 10 1 231 747 824 779
670 3 2 10 1 268 779 824 823
671 3 2 10 1 316 825 826 792
672 3 2 10 1 237 792 826 761
673 3 2 10 1 272 761 826 799
674 3 2 10 1 299 799 826 825
675 3 2 10 1 44 525 828 43
676 3 2 10 1 42 43 828 759
677 3 2 10 1 265 759 828 827
678 3 2 10 1 232 827 828 525
679 3 2 10 1 298 813 830 794
680 3 2 10 1 369 794 830 829
681 3 2 10 1 333 829 830 740
682 3 2 10 1 317 740 830 813
683 3 2 10 1 319 833 834 831
684 3 2 10 1 345 831 834 832
685 3 2 10 1 205 832 834 815
686 3 2 10 1 263 815 834 833
687 3 2 10 1 187 545 836 186
688 3 2 10 1 185 186 836 765
689 3 2 10 1 266 765 836 835
690 3 2 10 1 233 835 836 545
691 3 2 10 1 165 486 838 164
692 3 2 10 1 163 164 838 770
693 3 2 10 1 267 770 838 837
694 3 2 10 1 234 837 838 486
695 3 2 10 1 234 487 842 839
696 3 2 10 1 315 839 842 840
697 3 2 10 1 292 840 842 841
698 3 2 10 1 218 841 842 487
699 3 2 10 1 201 609 846 843
700 3 2 10 1 254 843 846 844
701 3 2 10 1 259 844 846 845
702 3 2 10 1 229 845 846 609
703 3 2 10 1 363 848 849 847
704 3 2 10 1 380 847 849 731
705 3 2 10 1 343 731 849 745
706 3 2 10 1 302 745 849 848
707 3 2 10 1 380 730 852 850
708 3 2 10 1 415 850 852 802
709 3 2 10 1 421 802 852 851
710 3 2 10 1 400 851 852 730
711 3 2 10 1 252 855 856 742
712 3 2 10 1 382 742 856 853
713 3 2 10 1 346 853 856 854
714 3 2 10 1 311 854 856 855
715 3 2 10 1 27 859 860 28
716 3 2 10 1 29 28 860 857
717 3 2 10 1 245 857 860 858
718 3 2 10 1 296 858 860 859
719 3 2 10 1 50 862 863 49
720 3 2 10 1 48 49 863 809
721 3 2 10 1 262 809 863 861
722 3 2 10 1 220 861 863 862
723 3 2 10 1 56 512 866 55
724 3 2 10 1 54 55 866 864
725 3 2 10 1 294 864 866 865
726 3 2 10 1 251 865 866 512
727 3 2 10 1 9 869 870 10
728 3 2 10 1 11 10 870 867
729 3 2 10 1 246 867 870 868
730 3 2 10 1 285 868 870 869
731 3 2 10 1 204 764 874 871
732 3 2 10 1 340 871 874 872
733 3 2 10 1 306 872 874 873
734 3 2 10 1 266 873 874 764
735 3 2 10 1 205 758 877 832
736 3 2 10 1 345 832 877 875
737 3 2 10 1 308 875 877 876
738 3 2 10 1 265 876 877 758
739 3 2 10 1 342 879 880 657
740 3 2 10 1 196 657 880 596
741 3 2 10 1 269 596 880 878
742 3 2 10 1 309 878 880 879
743 3 2 10 1 210 593 883 881
744 3 2 10 1 255 881 883 882
745 3 2 10 1 309 882 883 878
746 3 2 10 1 269 878 883 593
747 3 2 10 1 281 797 887 884
748 3 2 10 1 324 884 887 885
749 3 2 10 1 287 885 887 886
750 3 2 10 1 207 886 887 797
751 3 2 10 1 378 795 889 706
752 3 2 10 1 393 706 889 804
753 3 2 10 1 391 804 889 888
754 3 2 10 1 369 888 889 795
755 3 2 10 1 215 891 892 617
756 3 2 10 1 116 617 892 115
757 3 2 10 1 114 115 892 890
758 3 2 10 1 242 890 892 891
759 3 2 10 1 111 894 895 110
760 3 2 10 1 109 110 895 606
761 3 2 10 1 225 606 895 893
762 3 2 10 1 243 893 895 894
763 3 2 10 1 128 897 898 127
764 3 2 10 1 126 127 898 602
765 3 2 10 1 230 602 898 896
766 3 2 10 1 244 896 898 897
767 3 2 10 1 228 900 901 490
768 3 2 10 1 133 490 901 132
769 3 2 10 1 131 132 901 899
770 3 2 10 1 244 899 901 900
771 3 2 10 1 5 130 902 129
772 3 2 10 1 128 129 902 897
773 3 2 10 1 244 897 902 899
774 3 2 10 1 131 899 902 130
775 3 2 10 1 242 903 904 890
776 3 2 10 1 114 890 904 113
777 3 2 10 1 3 113 904 95
778 3 2 10 1 94 95 904 903
779 3 2 10 1 2 33 906 112
780 3 2 10 1 111 112 906 894
781 3 2 10 1 243 894 906 905
782 3 2 10 1 34 905 906 33
783 3 2 10 1 217 907 908 753
784 3 2 10 1 36 753 908 35
785 3 2 10 1 34 35 908 905
786 3 2 10 1 243 905 908 907
787 3 2 10 1 315 910 911 839
788 3 2 10 1 234 839 911 837
789 3 2 10 1 267 837 911 909
790 3 2 10 1 311 909 911 910
791 3 2 10 1 203 733 914 912
792 3 2 10 1 356 912 914 913
793 3 2 10 1 324 913 914 884
794 3 2 10 1 281 884 914 733
795 3 2 10 1 326 916 917 915
796 3 2 10 1 254 915 917 843
797 3 2 10 1 201 843 917 811
798 3 2 10 1 283 811 917 916
799 3 2 10 1 390 919 920 918
800 3 2 10 1 333 918 920 829
801 3 2 10 1 369 829 920 888
802 3 2 10 1 391 888 920 919
803 3 2 10 1 260 923 924 921
804 3 2 10 1 215 921 924 891
805 3 2 10 1 242 891 924 922
806 3 2 10 1 284 922 924 923
807 3 2 10 1 284 925 926 922
808 3 2 10 1 242 922 926 903
809 3 2 10 1 94 903 926 93
810 3 2 10 1 92 93 926 925
811 3 2 10 1 92 925 928 91
812 3 2 10 1 90 91 928 554
813 3 2 10 1 206 554 928 927
814 3 2 10 1 284 927 928 925
815 3 2 10 1 208 769 929 785
816 3 2 10 1 252 785 929 855
817 3 2 10 1 311 855 929 909
818 3 2 10 1 267 909 929 769
819 3 2 10 1 283 916 932 750
820 3 2 10 1 241 750 932 930
821 3 2 10 1 258 930 932 931
822 3 2 10 1 326 931 932 916
823 3 2 10 1 260 921 934 933
824 3 2 10 1 258 933 934 930
825 3 2 10 1 241 930 934 615
826 3 2 10 1 215 615 934 921
827 3 2 10 1 260 935 936 923
828 3 2 10 1 284 923 936 927
829 3 2 10 1 206 927 936 791
830 3 2 10 1 253 791 936 935
831 3 2 10 1 226 937 938 613
832 3 2 10 1 97 613 938 96
833 3 2 10 1 4 96 938 192
834 3 2 10 1 191 192 938 937
835 3 2 10 1 191 937 940 190
836 3 2 10 1 189 190 940 544
837 3 2 10 1 209 544 940 939
838 3 2 10 1 226 939 940 937
839 3 2 10 1 243 907 943 893
840 3 2 10 1 225 893 943 941
841 3 2 10 1 288 941 943 942
842 3 2 10 1 217 942 943 907
843 3 2 10 1 244 900 946 896
844 3 2 10 1 230 896 946 944
845 3 2 10 1 286 944 946 945
846 3 2 10 1 228 945 946 900
847 3 2 10 1 229 601 948 845
848 3 2 10 1 259 845 948 947
849 3 2 10 1 286 947 948 944
850 3 2 10 1 230 944 948 601
851 3 2 10 1 207 605 950 886
852 3 2 10 1 287 886 950 949
853 3 2 10 1 288 949 950 941
854 3 2 10 1 225 941 950 605
855 3 2 10 1 209 939 953 951
856 3 2 10 1 261 951 953 952
857 3 2 10 1 227 952 953 611
858 3 2 10 1 226 611 953 939
859 3 2 10 1 255 954 955 881
860 3 2 10 1 210 881 955 491
861 3 2 10 1 228 491 955 945
862 3 2 10 1 286 945 955 954
863 3 2 10 1 385 959 960 956
864 3 2 10 1 355 956 960 957
865 3 2 10 1 329 957 960 958
866 3 2 10 1 328 958 960 959
867 3 2 10 1 327 962 963 961
868 3 2 10 1 356 961 963 912
869 3 2 10 1 203 912 963 714
870 3 2 10 1 282 714 963 962
871 3 2 10 1 286 954 966 947
872 3 2 10 1 259 947 966 964
873 3 2 10 1 329 964 966 965
874 3 2 10 1 255 965 966 954
875 3 2 10 1 319 967 968 833
876 3 2 10 1 263 833 968 754
877 3 2 10 1 217 754 968 942
878 3 2 10 1 288 942 968 967
879 3 2 10 1 261 952 969 817
880 3 2 10 1 327 817 969 962
881 3 2 10 1 282 962 969 679
882 3 2 10 1 227 679 969 952
883 3 2 10 1 329 958 971 964
884 3 2 10 1 259 964 971 844
885 3 2 10 1 254 844 971 970
886 3 2 10 1 328 970 971 958
887 3 2 10 1 371 975 976 972
888 3 2 10 1 373 972 976 973
889 3 2 10 1 404 973 976 974
890 3 2 10 1 385 974 976 975
891 3 2 10 1 310 978 979 977
892 3 2 10 1 258 977 979 933
893 3 2 10 1 260 933 979 935
894 3 2 10 1 253 935 979 978
895 3 2 10 1 354 982 983 980
896 3 2 10 1 287 980 983 885
897 3 2 10 1 324 885 983 981
898 3 2 10 1 372 981 983 982
899 3 2 10 1 328 985 986 970
900 3 2 10 1 254 970 986 915
901 3 2 10 1 326 915 986 984
902 3 2 10 1 357 984 986 985
903 3 2 10 1 314 987 988 818
904 3 2 10 1 261 818 988 951
905 3 2 10 1 209 951 988 546
906 3 2 10 1 233 546 988 987
907 3 2 10 1 233 987 990 835
908 3 2 10 1 266 835 990 873
909 3 2 10 1 306 873 990 989
910 3 2 10 1 314 989 990 987
911 3 2 10 1 326 984 992 931
912 3 2 10 1 258 931 992 977
913 3 2 10 1 310 977 992 991
914 3 2 10 1 357 991 992 984
915 3 2 10 1 341 820 995 993
916 3 2 10 1 386 993 995 994
917 3 2 10 1 356 994 995 961
918 3 2 10 1 327 961 995 820
919 3 2 10 1 386 994 997 996
920 3 2 10 1 372 996 997 981
921 3 2 10 1 324 981 997 913
922 3 2 10 1 356 913 997 994
923 3 2 10 1 288 967 999 949
924 3 2 10 1 287 949 999 980
925 3 2 10 1 354 980 999 998
926 3 2 10 1 319 998 999 967
927 3 2 10 1 414 467 1001 1000
928 3 2 10 1 382 1000 1001 741
929 3 2 10 1 333 741 1001 918
930 3 2 10 1 390 918 1001 467
931 3 2 10 1 385 975 1003 959
932 3 2 10 1 328 959 1003 985
933 3 2 10 1 357 985 1003 1002
934 3 2 10 1 371 1002 1003 975
935 3 2 10 1 405 1006 1007 462
936 3 2 10 1 374 462 1007 1004
937 3 2 10 1 402 1004 1007 1005
938 3 2 10 1 398 1005 1007 1006
939 3 2 10 1 372 1009 1010 996
940 3 2 10 1 386 996 1010 1008
941 3 2 10 1 398 1008 1010 1005
942 3 2 10 1 402 1005 1010 1009
943 3 2 10 1 341 993 1013 1011
944 3 2 10 1 376 1011 1013 1012
945 3 2 10 1 398 1012 1013 1008
946 3 2 10 1 386 1008 1013 993
947 3 2 10 1 404 974 1016 1014
948 3 2 10 1 364 1014 1016 1015
949 3 2 10 1 355 1015 1016 956
950 3 2 10 1 385 956 1016 974
951 3 2 10 1 374 1004 1020 1017
952 3 2 10 1 337 1017 1020 1018
953 3 2 10 1 377 1018 1020 1019
954 3 2 10 1 402 1019 1020 1004
955 3 2 10 1 376 1021 1022 1011
956 3 2 10 1 341 1011 1022 819
957 3 2 10 1 314 819 1022 989
958 3 2 10 1 306 989 1022 1021
959 3 2 10 1 402 1009 1024 1019
960 3 2 10 1 377 1019 1024 1023
961 3 2 10 1 354 1023 1024 982
962 3 2 10 1 372 982 1024 1009
963 3 2 10 1 255 882 1026 965
964 3 2 10 1 329 965 1026 957
965 3 2 10 1 355 957 1026 1025
966 3 2 10 1 309 1025 1026 882
967 3 2 10 1 360 1029 1030 1027
968 3 2 10 1 388 1027 1030 463
969 3 2 10 1 405 463 1030 1028
970 3 2 10 1 368 1028 1030 1029
971 3 2 10 1 309 879 1032 1025
972 3 2 10 1 355 1025 1032 1015
973 3 2 10 1 364 1015 1032 1031
974 3 2 10 1 342 1031 1032 879
975 3 2 10 1 316 1034 1035 825
976 3 2 10 1 299 825 1035 772
977 3 2 10 1 334 772 1035 1033
978 3 2 10 1 339 1033 1035 1034
979 3 2 10 1 416 1037 1038 1036
980 3 2 10 1 404 1036 1038 973
981 3 2 10 1 373 973 1038 781
982 3 2 10 1 392 781 1038 1037
983 3 2 10 1 408 1040 1041 1039
984 3 2 10 1 376 1039 1041 1021
985 3 2 10 1 306 1021 1041 872
986 3 2 10 1 340 872 1041 1040
987 3 2 10 1 214 1043 1044 519
988 3 2 10 1 221 519 1044 440
989 3 2 10 1 291 440 1044 1042
990 3 2 10 1 331 1042 1044 1043
991 3 2 10 1 397 1045 1046 663
992 3 2 10 1 303 663 1046 658
993 3 2 10 1 342 658 1046 1031
994 3 2 10 1 364 1031 1046 1045
995 3 2 10 1 354 998 1048 1023
996 3 2 10 1 377 1023 1048 1047
997 3 2 10 1 345 1047 1048 831
998 3 2 10 1 319 831 1048 998
999 3 2 10 1 389 471 1052 1049
1000 3 2 10 1 409 1049 1052 1050
1001 3 2 10 1 213 1050 1052 1051
1002 3 2 10 1 362 1051 1052 471
1003 3 2 10 1 332 1056 1057 1053
1004 3 2 10 1 361 1053 1057 1054
1005 3 2 10 1 295 1054 1057 1055
1006 3 2 10 1 202 1055 1057 1056
1007 3 2 10 1 213 1060 1061 1058
1008 3 2 10 1 7 1058 1061 8
1009 3 2 10 1 9 8 1061 1059
1010 3 2 10 1 292 1059 1061 1060
1011 3 2 10 1 377 1047 1063 1018
1012 3 2 10 1 337 1018 1063 1062
1013 3 2 10 1 308 1062 1063 875
1014 3 2 10 1 345 875 1063 1047
1015 3 2 10 1 411 1065 1066 1064
1016 3 2 10 1 396 1064 1066 660
1017 3 2 10 1 336 660 1066 632
1018 3 2 10 1 383 632 1066 1065
1019 3 2 10 1 331 1043 1067 474
1020 3 2 10 1 330 474 1067 823
1021 3 2 10 1 268 823 1067 724
1022 3 2 10 1 214 724 1067 1043
1023 3 2 10 1 339 1034 1069 1068
1024 3 2 10 1 310 1068 1069 978
1025 3 2 10 1 253 978 1069 790
1026 3 2 10 1 316 790 1069 1034
1027 3 2 10 1 387 1070 1071 450
1028 3 2 10 1 363 450 1071 848
1029 3 2 10 1 302 848 1071 748
1030 3 2 10 1 344 748 1071 1070
1031 3 2 10 1 359 1073 1074 1072
1032 3 2 10 1 337 1072 1074 1017
1033 3 2 10 1 374 1017 1074 461
1034 3 2 10 1 388 461 1074 1073
1035 3 2 10 1 398 1006 1076 1012
1036 3 2 10 1 376 1012 1076 1039
1037 3 2 10 1 408 1039 1076 1075
1038 3 2 10 1 405 1075 1076 1006
1039 3 2 10 1 23 1080 1081 1077
1040 3 2 10 1 249 1077 1081 1078
1041 3 2 10 1 290 1078 1081 1079
1042 3 2 10 1 247 1079 1081 1080
1043 3 2 10 1 289 1085 1086 1082
1044 3 2 10 1 222 1082 1086 1083
1045 3 2 10 1 15 1083 1086 1084
1046 3 2 10 1 216 1084 1086 1085
1047 3 2 10 1 264 1089 1090 736
1048 3 2 10 1 212 736 1090 1087
1049 3 2 10 1 297 1087 1090 1088
1050 3 2 10 1 307 1088 1090 1089
1051 3 2 10 1 375 1093 1094 457
1052 3 2 10 1 338 457 1094 1091
1053 3 2 10 1 358 1091 1094 1092
1054 3 2 10 1 420 1092 1094 1093
1055 3 2 10 1 413 702 1098 1095
1056 3 2 10 1 411 1095 1098 1096
1057 3 2 10 1 407 1096 1098 1097
1058 3 2 10 1 394 1097 1098 702
1059 3 2 10 1 334 1033 1100 782
1060 3 2 10 1 373 782 1100 972
1061 3 2 10 1 371 972 1100 1099
1062 3 2 10 1 339 1099 1100 1033
1063 3 2 10 1 357 1002 1101 991
1064 3 2 10 1 310 991 1101 1068
1065 3 2 10 1 339 1068 1101 1099
1066 3 2 10 1 371 1099 1101 1002
1067 3 2 10 1 294 1103 1104 864
1068 3 2 10 1 54 864 1104 53
1069 3 2 10 1 52 53 1104 1102
1070 3 2 10 1 223 1102 1104 1103
1071 3 2 10 1 232 1106 1107 827
1072 3 2 10 1 265 827 1107 876
1073 3 2 10 1 308 876 1107 1105
1074 3 2 10 1 313 1105 1107 1106
1075 3 2 10 1 382 853 1110 1000
1076 3 2 10 1 414 1000 1110 1108
1077 3 2 10 1 403 1108 1110 1109
1078 3 2 10 1 346 1109 1110 853
1079 3 2 10 1 256 443 1112 1111
1080 3 2 10 1 211 1111 1112 526
1081 3 2 10 1 232 526 1112 1106
1082 3 2 10 1 313 1106 1112 443
1083 3 2 10 1 340 1113 1114 871
1084 3 2 10 1 204 871 1114 806
1085 3 2 10 1 264 806 1114 1089
1086 3 2 10 1 307 1089 1114 1113
1087 3 2 10 1 313 444 1118 1115
1088 3 2 10 1 359 1115 1118 1116
1089 3 2 10 1 332 1116 1118 1117
1090 3 2 10 1 293 1117 1118 444
1091 3 2 10 1 338 1119 1120 459
1092 3 2 10 1 387 459 1120 1070
1093 3 2 10 1 344 1070 1120 822
1094 3 2 10 1 330 822 1120 1119
1095 3 2 10 1 407 1123 1124 1121
1096 3 2 10 1 365 1121 1124 664
1097 3 2 10 1 397 664 1124 1122
1098 3 2 10 1 416 1122 1124 1123
1099 3 2 10 1 363 847 1126 452
1100 3 2 10 1 406 452 1126 1125
1101 3 2 10 1 415 1125 1126 850
1102 3 2 10 1 380 850 1126 847
1103 3 2 10 1 375 458 1128 1127
1104 3 2 10 1 414 1127 1128 466
1105 3 2 10 1 406 466 1128 451
1106 3 2 10 1 387 451 1128 458
1107 3 2 10 1 421 851 1130 1129
1108 3 2 10 1 417 1129 1130 720
1109 3 2 10 1 366 720 1130 697
1110 3 2 10 1 400 697 1130 851
1111 3 2 10 1 391 919 1131 803
1112 3 2 10 1 415 803 1131 1125
1113 3 2 10 1 406 1125 1131 465
1114 3 2 10 1 390 465 1131 919
1115 3 2 10 1 413 1095 1133 675
1116 3 2 10 1 418 675 1133 1132
1117 3 2 10 1 396 1132 1133 1064
1118 3 2 10 1 411 1064 1133 1095
1119 3 2 10 1 393 801 1134 705
1120 3 2 10 1 412 705 1134 777
1121 3 2 10 1 417 777 1134 1129
1122 3 2 10 1 421 1129 1134 801
1123 3 2 10 1 401 674 1137 646
1124 3 2 10 1 379 646 1137 1135
1125 3 2 10 1 422 1135 1137 1136
1126 3 2 10 1 418 1136 1137 674
1127 3 2 10 1 422 1138 1139 1135
1128 3 2 10 1 379 1135 1139 620
1129 3 2 10 1 399 620 1139 722
1130 3 2 10 1 419 722 1139 1138
1131 3 2 10 1 418 1132 1141 1136
1132 3 2 10 1 422 1136 1141 1140
1133 3 2 10 1 410 1140 1141 661
1134 3 2 10 1 396 661 1141 1132
1135 3 2 10 1 410 648 1142 1140
1136 3 2 10 1 422 1140 1142 1138
1137 3 2 10 1 419 1138 1142 776
1138 3 2 10 1 395 776 1142 648
1139 3 2 10 1 388 1144 1145 1027
1140 3 2 10 1 360 1027 1145 447
1141 3 2 10 1 325 447 1145 1143
1142 3 2 10 1 361 1143 1145 1144
1143 3 2 10 1 364 1045 1146 1014
1144 3 2 10 1 404 1014 1146 1036
1145 3 2 10 1 416 1036 1146 1122
1146 3 2 10 1 397 1122 1146 1045
1147 3 2 10 1 11 867 1149 12
1148 3 2 10 1 13 12 1149 1147
1149 3 2 10 1 224 1147 1149 1148
1150 3 2 10 1 246 1148 1149 867
1151 3 2 10 1 1 32 1152 1150
1152 3 2 10 1 200 1150 1152 1151
1153 3 2 10 1 199 1151 1152 434
1154 3 2 10 1 31 434 1152 32
1155 3 2 10 1 291 436 1153 439
1156 3 2 10 1 245 439 1153 857
1157 3 2 10 1 29 857 1153 30
1158 3 2 10 1 31 30 1153 436
1159 3 2 10 1 338 1091 1155 1119
1160 3 2 10 1 330 1119 1155 473
1161 3 2 10 1 312 473 1155 1154
1162 3 2 10 1 358 1154 1155 1091
1163 3 2 10 1 307 1157 1158 1088
1164 3 2 10 1 297 1088 1158 1156
1165 3 2 10 1 257 1156 1158 448
1166 3 2 10 1 360 448 1158 1157
1167 3 2 10 1 293 1160 1161 1117
1168 3 2 10 1 332 1117 1161 1056
1169 3 2 10 1 202 1056 1161 1159
1170 3 2 10 1 247 1159 1161 1160
1171 3 2 10 1 256 1162 1163 442
1172 3 2 10 1 293 442 1163 1160
1173 3 2 10 1 247 1160 1163 1079
1174 3 2 10 1 290 1079 1163 1162
1175 3 2 10 1 256 1111 1165 1162
1176 3 2 10 1 290 1162 1165 1164
1177 3 2 10 1 262 1164 1165 808
1178 3 2 10 1 211 808 1165 1111
1179 3 2 10 1 389 1167 1168 470
1180 3 2 10 1 346 470 1168 1109
1181 3 2 10 1 403 1109 1168 1166
1182 3 2 10 1 420 1166 1168 1167
1183 3 2 10 1 216 1085 1171 1169
1184 3 2 10 1 257 1169 1171 1156
1185 3 2 10 1 297 1156 1171 1170
1186 3 2 10 1 289 1170 1171 1085
1187 3 2 10 1 224 1148 1173 1172
1188 3 2 10 1 173 1172 1173 172
1189 3 2 10 1 171 172 1173 432
1190 3 2 10 1 246 432 1173 1148
1191 3 2 10 1 218 455 1175 1174
1192 3 2 10 1 285 1174 1175 868
1193 3 2 10 1 246 868 1175 431
1194 3 2 10 1 169 431 1175 455
1195 3 2 10 1 325 1143 1178 1176
1196 3 2 10 1 248 1176 1178 1177
1197 3 2 10 1 295 1177 1178 1054
1198 3 2 10 1 361 1054 1178 1143
1199 3 2 10 1 248 1177 1181 1179
1200 3 2 10 1 17 1179 1181 18
1201 3 2 10 1 19 18 1181 1180
1202 3 2 10 1 295 1180 1181 1177
1203 3 2 10 1 312 1182 1183 475
1204 3 2 10 1 331 475 1183 1042
1205 3 2 10 1 291 1042 1183 435
1206 3 2 10 1 199 435 1183 1182
1207 3 2 10 1 202 1184 1185 1055
1208 3 2 10 1 295 1055 1185 1180
1209 3 2 10 1 19 1180 1185 20
1210 3 2 10 1 21 20 1185 1184
1211 3 2 10 1 220 862 1186 427
1212 3 2 10 1 223 427 1186 1102
1213 3 2 10 1 52 1102 1186 51
1214 3 2 10 1 50 51 1186 862
1215 3 2 10 1 173 174 1187 1172
1216 3 2 10 1 224 1172 1187 425
1217 3 2 10 1 250 425 1187 494
1218 3 2 10 1 175 494 1187 174
1219 3 2 10 1 297 1170 1189 1087
1220 3 2 10 1 212 1087 1189 516
1221 3 2 10 1 219 516 1189 1188
1222 3 2 10 1 289 1188 1189 1170
1223 3 2 10 1 365 655 1190 1121
1224 3 2 10 1 407 1121 1190 1096
1225 3 2 10 1 411 1096 1190 1065
1226 3 2 10 1 383 1065 1190 655
1227 3 2 10 1 307 1113 1192 1157
1228 3 2 10 1 360 1157 1192 1029
1229 3 2 10 1 368 1029 1192 1191
1230 3 2 10 1 340 1191 1192 1113
1231 3 2 10 1 392 1037 1193 728
1232 3 2 10 1 394 728 1193 1097
1233 3 2 10 1 407 1097 1193 1123
1234 3 2 10 1 416 1123 1193 1037
1235 3 2 10 1 223 1103 1196 1194
1236 3 2 10 1 25 1194 1196 26
1237 3 2 10 1 27 26 1196 1195
1238 3 2 10 1 294 1195 1196 1103
1239 3 2 10 1 289 1082 1197 1188
1240 3 2 10 1 219 1188 1197 495
1241 3 2 10 1 250 495 1197 424
1242 3 2 10 1 222 424 1197 1082
1243 3 2 10 1 220 428 1198 861
1244 3 2 10 1 262 861 1198 1164
1245 3 2 10 1 290 1164 1198 1078
1246 3 2 10 1 249 1078 1198 428
1247 3 2 10 1 337 1062 1199 1072
1248 3 2 10 1 359 1072 1199 1115
1249 3 2 10 1 313 1115 1199 1105
1250 3 2 10 1 308 1105 1199 1062
1251 3 2 10 1 257 446 1201 1169
1252 3 2 10 1 216 1169 1201 1200
1253 3 2 10 1 248 1200 1201 1176
1254 3 2 10 1 325 1176 1201 446
1255 3 2 10 1 222 1083 1202 423
1256 3 2 10 1 224 423 1202 1147
1257 3 2 10 1 13 1147 1202 14
1258 3 2 10 1 15 14 1202 1083
1259 3 2 10 1 25 24 1203 1194
1260 3 2 10 1 223 1194 1203 429
1261 3 2 10 1 249 429 1203 1077
1262 3 2 10 1 23 1077 1203 24
1263 3 2 10 1 315 840 1205 1204
1264 3 2 10 1 362 1204 1205 1051
1265 3 2 10 1 213 1051 1205 1060
1266 3 2 10 1 292 1060 1205 840
1267 3 2 10 1 199 1182 1207 1151
1268 3 2 10 1 200 1151 1207 1206
1269 3 2 10 1 358 1206 1207 1154
1270 3 2 10 1 312 1154 1207 1182
1271 3 2 10 1 7 6 1209 1058
1272 3 2 10 1 213 1058 1209 1050
1273 3 2 10 1 409 1050 1209 1208
1274 3 2 10 1 1 1208 1209 6
1275 3 2 10 1 403 1166 1210 1108
1276 3 2 10 1 414 1108 1210 1127
1277 3 2 10 1 375 1127 1210 1093
1278 3 2 10 1 420 1093 1210 1166
1279 3 2 10 1 200 1206 1212 1211
1280 3 2 10 1 389 1211 1212 1167
1281 3 2 10 1 420 1167 1212 1092
1282 3 2 10 1 358 1092 1212 1206
1283 3 2 10 1 247 1080 1213 1159
1284 3 2 10 1 202 1159 1213 1184
1285 3 2 10 1 21 1184 1213 22
1286 3 2 10 1 23 22 1213 1080
1287 3 2 10 1 17 16 1214 1179
1288 3 2 10 1 248 1179 1214 1200
1289 3 2 10 1 216 1200 1214 1084
1290 3 2 10 1 15 1084 1214 16
1291 3 2 10 1 251 513 1216 1215
1292 3 2 10 1 296 1215 1216 858
1293 3 2 10 1 245 858 1216 438
1294 3 2 10 1 221 438 1216 513
1295 3 2 10 1 361 1144 1217 1053
1296 3 2 10 1 332 1053 1217 1116
1297 3 2 10 1 359 1116 1217 1073
1298 3 2 10 1 388 1073 1217 1144
1299 3 2 10 1 368 1191 1218 1028
1300 3 2 10 1 405 1028 1218 1075
1301 3 2 10 1 408 1075 1218 1040
1302 3 2 10 1 340 1040 1218 1191
1303 3 2 10 1 296 859 1219 1215
1304 3 2 10 1 251 1215 1219 865
1305 3 2 10 1 294 865 1219 1195
1306 3 2 10 1 27 1195 1219 859
1307 3 2 10 1 311 910 1220 854
1308 3 2 10 1 346 854 1220 469
1309 3 2 10 1 362 469 1220 1204
1310 3 2 10 1 315 1204 1220 910
1311 3 2 10 1 409 1208 1221 1049
1312 3 2 10 1 389 1049 1221 1211
1313 3 2 10 1 200 1211 1221 1150
1314 3 2 10 1 1 1150 1221 1208
1315 3 2 10 1 285 869 1222 1174
1316 3 2 10 1 218 1174 1222 841
1317 3 2 10 1 292 841 1222 1059
1318 3 2 10 1 9 1059 1222 869
$EndElements
